<?xml version="1.0" encoding="UTF-8"?>
<svg width="18px" height="18px" viewBox="0 0 18 18" version="1.1" xmlns="http://www.w3.org/2000/svg" xmlns:xlink="http://www.w3.org/1999/xlink">
    <!-- Generator: Sketch 51.3 (57544) - http://www.bohemiancoding.com/sketch -->
    <title>codemate/whole/icon/feed-icon</title>
    <desc>Created with Sketch.</desc>
    <defs>
        <circle id="path-1" cx="9" cy="9" r="9"></circle>
        <path d="M0.0635985975,0.431213653 C-0.0249370223,1.59964607 0.598243455,2.62299556 0.845653028,2.97910818 C0.866056046,2.2473097 1.47465419,1.65981121 2.22405153,1.65981121 C2.42949093,1.65981121 2.62371786,1.70516092 2.79888972,1.78429705 L2.81561652,1.7723122 C2.81561652,1.7723122 1.15151449,0.0124666517 0.409714664,0.0124666517 C0.216835681,0.0124064263 0.0863298882,0.131411759 0.0635985975,0.431213653" id="path-3"></path>
        <linearGradient x1="99.9990558%" y1="50.0006395%" x2="-0.00101354997%" y2="50.0006395%" id="linearGradient-5">
            <stop stop-color="#FBFBFB" offset="0%"></stop>
            <stop stop-color="#FFF2D2" offset="100%"></stop>
        </linearGradient>
        <path d="M0.0518346951,1.7723122 L0.0684389532,1.78429705 C0.243672083,1.70516092 0.437899014,1.65981121 0.643338414,1.65981121 C1.39279703,1.65981121 2.00127263,2.2473097 2.02167565,2.97910818 C2.26914649,2.62299556 2.89232697,1.59964607 2.80379135,0.431213653 C2.78106006,0.131471984 2.65043173,0.0125268771 2.45767528,0.0124666517 C1.71593673,0.0122257502 0.0518346951,1.7723122 0.0518346951,1.7723122" id="path-6"></path>
        <linearGradient x1="-0.00101354997%" y1="50.0006395%" x2="99.9990558%" y2="50.0006395%" id="linearGradient-8">
            <stop stop-color="#FBFBFB" offset="0%"></stop>
            <stop stop-color="#FFF2D2" offset="100%"></stop>
        </linearGradient>
        <path d="M0.0138470931,0.0489030009 C0.0138470931,0.0489030009 0.424174461,4.10273292 1.2091086,4.2586564 C1.994104,4.41457989 2.13680259,2.7384476 2.31516051,0.0489030009 L0.0138470931,0.0489030009 Z" id="path-9"></path>
        <path d="M0.000673973559,0.0489030009 C0.17909316,2.7384476 0.321853018,4.41457989 1.10684842,4.2586564 C1.89178256,4.10273292 2.30210993,0.0489030009 2.30210993,0.0489030009 L0.000673973559,0.0489030009 Z" id="path-11"></path>
        <path d="M0.0392130081,0.0580572572 C0.0392130081,0.0580572572 0.449479105,4.11182695 1.23441324,4.26781066 C2.01940865,4.42367392 2.1621685,2.74754163 2.34052642,0.0580572572 L0.0392130081,0.0580572572 Z" id="path-13"></path>
        <path d="M0.0261011578,0.0580572572 C0.204459074,2.74754163 0.347157662,4.42367392 1.13215307,4.26781066 C1.9170872,4.11182695 2.32741457,0.0580572572 2.32741457,0.0580572572 L0.0261011578,0.0580572572 Z" id="path-15"></path>
        <path d="M5.83679499,0.383153808 C5.66634094,0.262703066 5.45753167,0.190793974 5.23095401,0.190793974 C4.71475152,0.190793974 4.28800371,0.560035721 4.21025166,1.04220004 C4.06577624,0.967400127 3.90120414,0.924640114 3.7262161,0.924640114 C3.15480904,0.924640114 2.69166665,1.37639062 2.69166665,1.93365597 C2.69166665,1.9669606 2.69356603,1.99990388 2.69675209,2.03236536 C2.65802925,2.02808935 2.61881624,2.02537921 2.57880672,2.02537921 C2.00746093,2.02537921 1.54431855,2.47706949 1.54431855,3.03433485 C1.54431855,3.13286355 1.55945232,3.22783896 1.58647253,3.31787589 C1.23919233,3.48066507 0.998828841,3.82587689 0.998828841,4.22679718 C0.998828841,4.57971785 1.18496809,4.88987851 1.46638269,5.07019327 C0.986268424,5.15764051 0.622690315,5.56771506 0.622690315,6.06132219 C0.622690315,6.47115584 0.873592296,6.82311291 1.23337165,6.98108405 C1.0868743,7.1551956 0.998828841,7.37790902 0.998828841,7.62067749 C0.998828841,8.02159778 1.23919233,8.36680961 1.58647253,8.52959878 C1.55945232,8.61963571 1.54431855,8.71461112 1.54431855,8.81313983 L1.54762714,11.2924377 L1.46969129,19.2549543 L1.45333211,19.2766957 C1.18545825,19.4789325 1.05709692,19.7736152 1.05709692,20.129487 C1.05709692,20.237471 1.07370118,20.3415405 1.10323347,20.4401294 C0.722744756,20.6184567 0.459466168,20.9967323 0.459466168,21.4359559 C0.459466168,21.8226028 0.663373811,22.1623943 0.971624816,22.3599938 C0.445619075,22.4557521 0.047300691,22.9050936 0.047300691,23.4458572 C0.047300691,23.8947771 0.32215937,24.2804604 0.716433912,24.4535481 C0.55590566,24.6442819 0.459466168,24.8881946 0.459466168,25.1542703 C0.459466168,25.5934337 0.722744756,25.9717695 1.10323347,26.1500968 C1.07370118,26.2486857 1.05709692,26.3527552 1.05709692,26.460679 C1.05709692,27.0711836 1.56453775,27.5661157 2.1904754,27.5661157 C2.23422241,27.5661157 2.27723418,27.5631044 2.31969451,27.5584069 C2.31614083,27.5940603 2.31411891,27.6300751 2.31411891,27.6666319 C2.31411891,28.2770762 2.82155974,28.7720083 3.44755866,28.7720083 C3.63921223,28.7720083 3.81959207,28.7252132 3.97791459,28.6432465 C4.06308034,29.1714832 4.53057292,29.5759568 5.09609803,29.5759568 C5.34430411,29.5759568 5.57314878,29.4972422 5.75983946,29.3652884 C5.9676684,29.6161873 6.2852325,29.7769891 6.64164198,29.7769891 C6.98604248,29.7769891 7.29386459,29.6266063 7.50169353,29.3901615 C7.90135986,29.7241714 8.50193159,29.7348313 8.92046918,29.3898002 C8.95312626,29.3628794 8.98327126,29.3342121 9.01194578,29.3045813 C9.03198117,29.3333088 9.05336452,29.3614942 9.07658597,29.3887161 C9.46497856,29.8439597 10.158191,29.9010533 10.6249484,29.5162734 C10.767892,29.3984726 10.872603,29.252667 10.9385299,29.0942743 C11.3381349,29.4358123 11.9439759,29.4500255 12.3656996,29.1024649 C12.5507359,28.9498538 12.6713159,28.7505078 12.7265818,28.53731 C13.0410824,28.5966923 13.3802136,28.5214105 13.6460043,28.3023106 C13.9117337,28.0832107 14.0462833,27.7680514 14.0415655,27.4533136 C14.2647733,27.4369323 14.4855303,27.3550258 14.6705667,27.2024147 C15.092229,26.8547336 15.1835218,26.2659102 14.9109301,25.81958 C15.0811391,25.7833845 15.2454661,25.7074403 15.3883485,25.5896395 C15.8551059,25.2047994 15.9186432,24.5239516 15.5301893,24.068708 C15.5069679,24.0414861 15.482521,24.0158301 15.4572164,23.9914388 C15.4918954,23.9689146 15.5258391,23.9446437 15.5584962,23.9177832 C16.0252535,23.5330033 16.0886683,22.8520351 15.700337,22.3968517 C15.631653,22.3163304 15.5531044,22.2489382 15.4683063,22.1935911 C15.6385153,21.8268186 15.5942168,21.3828974 15.3148241,21.0553918 C15.1455955,20.8570094 14.9184664,20.7343906 14.6774289,20.6907874 C14.8612399,20.319498 14.820924,19.8629295 14.5352818,19.5281366 C14.1912489,19.1249278 13.608323,19.0348306 13.155229,19.2866329 C13.2593885,18.9498526 13.1952998,18.5711555 12.9493607,18.2828566 C12.6698455,17.9552909 12.2328655,17.8351412 11.8357113,17.936079 C11.8248051,17.9113866 11.8128574,17.8870555 11.7999907,17.8630256 L11.7356568,11.2924377 L11.7390267,8.81313983 C11.7390267,8.71461112 11.7238316,8.61963571 11.6968114,8.52959878 C12.0440916,8.36680961 12.2844551,8.02159778 12.2844551,7.62067749 C12.2844551,7.37790902 12.1964709,7.1551956 12.0499736,6.98108405 C12.4097529,6.82311291 12.6606549,6.47115584 12.6606549,6.06132219 C12.6606549,5.56771506 12.2970155,5.15764051 11.8170238,5.07019327 C12.0983771,4.88987851 12.2844551,4.57971785 12.2844551,4.22679718 C12.2844551,3.82587689 12.0440916,3.48066507 11.6968114,3.31787589 C11.7238316,3.22783896 11.7390267,3.13286355 11.7390267,3.03433485 C11.7390267,2.47706949 11.275823,2.02537921 10.7044772,2.02537921 C10.664529,2.02537921 10.6252547,2.02808935 10.5864706,2.03236536 C10.5897792,1.99990388 10.5916173,1.9669606 10.5916173,1.93365597 C10.5916173,1.37639062 10.1284136,0.924640114 9.55712913,0.924640114 C9.38214108,0.924640114 9.21750772,0.967400127 9.07297102,1.04220004 C8.99521898,0.560035721 8.5685937,0.190793974 8.05232994,0.190793974 C7.82581355,0.190793974 7.61694301,0.262703066 7.44655024,0.383153808 C7.25691858,0.154116723 6.9669874,0.00740772058 6.64164198,0.00740772058 C6.31629655,0.00740772058 6.02642664,0.154116723 5.83679499,0.383153808" id="path-17"></path>
        <linearGradient x1="50.0001729%" y1="12.0696466%" x2="50.0001728%" y2="0.000151005208%" id="linearGradient-19">
            <stop stop-color="#FEFEFE" offset="0%"></stop>
            <stop stop-color="#B3B3B3" offset="100%"></stop>
        </linearGradient>
        <path d="M4.74704098,1.56013822 C4.57174658,1.50436953 4.3850559,1.47341369 4.19082897,1.47341369 C3.99666331,1.47341369 3.80997263,1.50436953 3.63467823,1.56013822 C3.50558165,0.705058413 2.75777734,0.0483609726 1.85195685,0.0483609726 C0.855272469,0.0483609726 0.0473619614,0.842492709 0.0473619614,1.82211859 C0.0473619614,2.80180469 0.855272469,3.59593643 1.85195685,3.59593643 C2.04618378,3.59593643 2.23281319,3.56498059 2.40804632,3.50915167 C2.53720417,4.36423148 3.28500848,5.02098914 4.19082897,5.02098914 C5.09671073,5.02098914 5.84451505,4.36423148 5.97355035,3.50915167 C6.14884475,3.56498059 6.33553543,3.59593643 6.52976236,3.59593643 C7.52638547,3.59593643 8.33435725,2.80180469 8.33435725,1.82211859 C8.33435725,0.842492709 7.52638547,0.0483609726 6.52976236,0.0483609726 C5.62388061,0.0483609726 4.87613756,0.705058413 4.74704098,1.56013822" id="path-20"></path>
        <linearGradient x1="49.9990211%" y1="100.000674%" x2="49.9990211%" y2="0.000604841799%" id="linearGradient-22">
            <stop stop-color="#FBFBFB" offset="0%"></stop>
            <stop stop-color="#FFF2D2" offset="100%"></stop>
        </linearGradient>
    </defs>
    <g id="Page-1" stroke="none" stroke-width="1" fill="none" fill-rule="evenodd">
        <g id="codemate-질문게시판" transform="translate(-30.000000, -61.000000)">
            <g id="Group-5" transform="translate(30.000000, 59.000000)">
                <g id="Group-6">
                    <g id="codemate/" transform="translate(0.000000, 2.000000)">
                        <g id="Group-2-Copy">
                            <mask id="mask-2" fill="white">
                                <use xlink:href="#path-1"></use>
                            </mask>
                            <use id="Oval" fill="#D91E2D" fill-rule="nonzero" xlink:href="#path-1"></use>
                            <g id="Group-7" mask="url(#mask-2)">
                                <g transform="translate(2.089451, 2.261208)" id="Group">
                                    <g>
                                        <g id="Group-4" transform="translate(1.715569, 0.602254)">
                                            <mask id="mask-4" fill="white">
                                                <use xlink:href="#path-3"></use>
                                            </mask>
                                            <g id="Clip-3"></g>
                                            <path d="M0.0635985975,0.431213653 C-0.0249370223,1.59964607 0.598243455,2.62299556 0.845653028,2.97910818 C0.866056046,2.2473097 1.47465419,1.65981121 2.22405153,1.65981121 C2.42949093,1.65981121 2.62371786,1.70516092 2.79888972,1.78429705 L2.81561652,1.7723122 C2.81561652,1.7723122 1.15151449,0.0124666517 0.409714664,0.0124666517 C0.216835681,0.0124064263 0.0863298882,0.131411759 0.0635985975,0.431213653" id="Fill-2" fill="url(#linearGradient-5)" mask="url(#mask-4)"></path>
                                        </g>
                                        <path d="M2.12824925,0.803424511 C2.10600812,0.803424511 2.08652416,0.806255103 2.0699199,0.811976514 C1.99798854,0.836789366 1.97734044,0.970188562 1.97151976,1.04751794 C1.91031071,1.85471858 2.20716543,2.5899499 2.46921861,3.06735642 C2.69322292,2.48184536 3.26450743,2.07249352 3.93958388,2.07249352 C3.94761029,2.07249352 3.95557543,2.07255374 3.96366311,2.0726742 C3.11770373,1.2563193 2.40819337,0.803424511 2.12824925,0.803424511 Z M2.73776645,4.17134768 L2.40200507,3.68827999 C2.12616606,3.29145502 1.49453028,2.23696901 1.58680339,1.01933246 C1.61529409,0.643646603 1.79585774,0.504646448 1.94223255,0.454177587 C2.1653178,0.37739024 2.5840392,0.378895874 3.64285169,1.27450736 C4.19312048,1.73998925 4.65313808,2.22510461 4.67237696,2.24552101 L4.82022226,2.40186607 L4.53684701,2.60524715 L4.4340354,2.55881339 C4.27657066,2.48768722 4.11016046,2.45167245 3.93958388,2.45167245 C3.29250797,2.45167245 2.77177148,2.95021807 2.75406435,3.58655934 L2.73776645,4.17134768 Z" id="Fill-5" fill="#333333"></path>
                                        <g id="Group-9" transform="translate(9.068008, 0.602254)">
                                            <mask id="mask-7" fill="white">
                                                <use xlink:href="#path-6"></use>
                                            </mask>
                                            <g id="Clip-8"></g>
                                            <path d="M0.0518346951,1.7723122 L0.0684389532,1.78429705 C0.243672083,1.70516092 0.437899014,1.65981121 0.643338414,1.65981121 C1.39279703,1.65981121 2.00127263,2.2473097 2.02167565,2.97910818 C2.26914649,2.62299556 2.89232697,1.59964607 2.80379135,0.431213653 C2.78106006,0.131471984 2.65043173,0.0125268771 2.45767528,0.0124666517 C1.71593673,0.0122257502 0.0518346951,1.7723122 0.0518346951,1.7723122" id="Fill-7" fill="url(#linearGradient-8)" mask="url(#mask-7)"></path>
                                        </g>
                                        <path d="M9.71134654,2.07251159 C10.3864843,2.07251159 10.9577688,2.48180321 11.1817731,3.06737448 C11.443765,2.58990775 11.7405584,1.8546162 11.6794107,1.04747578 C11.67359,0.97020663 11.6530031,0.836807434 11.5810718,0.811994581 C11.3540652,0.733761825 10.5998275,1.19171554 9.68714476,2.07269226 C9.69523244,2.07257181 9.70332013,2.07251159 9.71134654,2.07251159 Z M10.9131027,4.17142598 L10.8968661,3.5865774 C10.8791589,2.95017591 10.3584224,2.45169052 9.71134654,2.45169052 C9.54070868,2.45169052 9.37435975,2.48770529 9.21707883,2.55883145 L9.11438976,2.60514476 L8.8304018,2.40218527 L8.97855345,2.24553908 C8.99779233,2.22512268 9.45780993,1.74000732 10.0080787,1.27452543 C11.0668299,0.378974167 11.4855513,0.377167406 11.7086979,0.454135429 C11.8550727,0.504664515 12.0356976,0.64366467 12.0641883,1.01935053 C12.1564001,2.23692685 11.5247644,3.29147309 11.2489866,3.68829805 L10.9131027,4.17142598 Z" id="Fill-10" fill="#333333"></path>
                                        <g id="Group-14" transform="translate(4.595274, 28.968403)">
                                            <mask id="mask-10" fill="white">
                                                <use xlink:href="#path-9"></use>
                                            </mask>
                                            <g id="Clip-13"></g>
                                            <path d="M0.0138470931,0.0489030009 C0.0138470931,0.0489030009 0.424174461,4.10273292 1.2091086,4.2586564 C1.994104,4.41457989 2.13680259,2.7384476 2.31516051,0.0489030009 L0.0138470931,0.0489030009 Z" id="Fill-12" fill="url(#linearGradient-8)" mask="url(#mask-10)"></path>
                                        </g>
                                        <path d="M4.85605927,29.2348282 C4.89851961,29.5944339 4.99091526,30.3089477 5.13024398,31.025449 C5.49933642,32.923572 5.83411747,33.0110794 5.84820965,33.0138498 C5.91658733,33.0274607 5.96707408,33.0172826 6.01688685,32.9797622 C6.42886852,32.6699027 6.55937431,30.955708 6.67425617,29.2348282 L4.85605927,29.2348282 Z M5.90102467,33.4543984 C5.85507192,33.4543984 5.80813886,33.4497008 5.76053181,33.4402454 C5.46435106,33.3814052 5.07552958,33.0627528 4.69504086,31.1045249 C4.49480944,30.0739483 4.38991464,29.0490932 4.38887304,29.0388549 L4.36467126,28.7998204 L7.14665038,28.7998204 L7.13127153,29.0315074 C6.96816992,31.4902684 6.84850898,32.9020715 6.28580231,33.3252752 C6.17214586,33.410735 6.04108863,33.4543984 5.90102467,33.4543984 Z" id="Fill-15" fill="#4D4D4D"></path>
                                        <g id="Group-19" transform="translate(6.739736, 28.968403)">
                                            <mask id="mask-12" fill="white">
                                                <use xlink:href="#path-11"></use>
                                            </mask>
                                            <g id="Clip-18"></g>
                                            <path d="M0.000673973559,0.0489030009 C0.17909316,2.7384476 0.321853018,4.41457989 1.10684842,4.2586564 C1.89178256,4.10273292 2.30210993,0.0489030009 2.30210993,0.0489030009 L0.000673973559,0.0489030009 Z" id="Fill-17" fill="url(#linearGradient-8)" mask="url(#mask-12)"></path>
                                        </g>
                                        <path d="M6.97668037,29.2348282 C7.09156223,30.955708 7.22206802,32.6699027 7.63404969,32.9797622 C7.68386246,33.0172224 7.73428794,33.0274607 7.80272689,33.0138498 C7.81681907,33.0110794 8.15160013,32.923572 8.52069256,31.025449 C8.66002128,30.3089477 8.75241693,29.5944339 8.79487727,29.2348282 L6.97668037,29.2348282 Z M7.74997314,33.4543984 C7.60978664,33.4543984 7.47879068,33.410735 7.36513423,33.3252752 C6.80242756,32.9020715 6.68276662,31.4902684 6.51966501,29.0315074 L6.50428616,28.7998204 L9.28626528,28.7998204 L9.2620635,29.0388549 C9.2610219,29.0490932 9.15618838,30.0739483 8.95589568,31.1045249 C8.57540696,33.0627528 8.18664675,33.3814052 7.89040473,33.4402454 C7.84279769,33.4497008 7.79586462,33.4543984 7.74997314,33.4543984 Z" id="Fill-20" fill="#4D4D4D"></path>
                                        <g id="Group-24" transform="translate(9.006738, 28.426375)">
                                            <mask id="mask-14" fill="white">
                                                <use xlink:href="#path-13"></use>
                                            </mask>
                                            <g id="Clip-23"></g>
                                            <path d="M0.0392130081,0.0580572572 C0.0392130081,0.0580572572 0.449479105,4.11182695 1.23441324,4.26781066 C2.01940865,4.42367392 2.1621685,2.74754163 2.34052642,0.0580572572 L0.0392130081,0.0580572572 Z" id="Fill-22" fill="url(#linearGradient-8)" mask="url(#mask-14)"></path>
                                        </g>
                                        <path d="M9.29286409,28.701918 C9.33532443,29.0615237 9.42772008,29.7760375 9.5670488,30.4925387 C9.93614123,32.3906617 10.2709223,32.4781692 10.2850145,32.4809396 C10.3534534,32.4945505 10.4038789,32.4843724 10.4536917,32.4469122 C10.8656733,32.1369925 10.9961791,30.4227978 11.111061,28.701918 L9.29286409,28.701918 Z M10.3378295,32.9214882 C10.2918767,32.9214882 10.2449437,32.9167906 10.1973366,32.9073352 C9.90115588,32.848495 9.5123344,32.5298426 9.13184568,30.5716147 C8.93161425,29.5410381 8.82671946,28.516183 8.82567786,28.5059447 L8.80147608,28.2669102 L11.5834552,28.2669102 L11.5680763,28.4985972 C11.4049747,30.9573581 11.2853138,32.3691613 10.7226071,32.792365 C10.6089507,32.8778248 10.4778934,32.9214882 10.3378295,32.9214882 Z" id="Fill-25" fill="#4D4D4D"></path>
                                        <g id="Group-29" transform="translate(11.151199, 28.426375)">
                                            <mask id="mask-16" fill="white">
                                                <use xlink:href="#path-15"></use>
                                            </mask>
                                            <g id="Clip-28"></g>
                                            <path d="M0.0261011578,0.0580572572 C0.204459074,2.74754163 0.347157662,4.42367392 1.13215307,4.26781066 C1.9170872,4.11182695 2.32741457,0.0580572572 2.32741457,0.0580572572 L0.0261011578,0.0580572572 Z" id="Fill-27" fill="url(#linearGradient-8)" mask="url(#mask-16)"></path>
                                        </g>
                                        <path d="M11.4134852,28.701918 C11.528367,30.4227978 11.6588728,32.1369925 12.0708545,32.4469122 C12.1206673,32.4843122 12.1710928,32.4945505 12.2395317,32.4809396 C12.2536239,32.4781692 12.5884049,32.3906617 12.9574974,30.4925387 C13.0968261,29.7760375 13.1892218,29.0615237 13.2316821,28.701918 L11.4134852,28.701918 Z M12.186778,32.9214882 C12.0465915,32.9214882 11.9155955,32.8778248 11.801939,32.792365 C11.2392324,32.3691613 11.1195714,30.9573581 10.9564698,28.4985972 L10.941091,28.2669102 L13.7230701,28.2669102 L13.6988683,28.5059447 C13.6978267,28.516183 13.5929932,29.5410381 13.3927005,30.5716147 C13.0122118,32.5298426 12.6234516,32.848495 12.3272095,32.9073352 C12.2796025,32.9167906 12.2326694,32.9214882 12.186778,32.9214882 Z" id="Fill-30" fill="#4D4D4D"></path>
                                        <g id="Group-34" transform="translate(0.183811, 0.240901)">
                                            <mask id="mask-18" fill="white">
                                                <use xlink:href="#path-17"></use>
                                            </mask>
                                            <g id="Clip-33"></g>
                                            <path d="M5.83679499,0.383153808 C5.66634094,0.262703066 5.45753167,0.190793974 5.23095401,0.190793974 C4.71475152,0.190793974 4.28800371,0.560035721 4.21025166,1.04220004 C4.06577624,0.967400127 3.90120414,0.924640114 3.7262161,0.924640114 C3.15480904,0.924640114 2.69166665,1.37639062 2.69166665,1.93365597 C2.69166665,1.9669606 2.69356603,1.99990388 2.69675209,2.03236536 C2.65802925,2.02808935 2.61881624,2.02537921 2.57880672,2.02537921 C2.00746093,2.02537921 1.54431855,2.47706949 1.54431855,3.03433485 C1.54431855,3.13286355 1.55945232,3.22783896 1.58647253,3.31787589 C1.23919233,3.48066507 0.998828841,3.82587689 0.998828841,4.22679718 C0.998828841,4.57971785 1.18496809,4.88987851 1.46638269,5.07019327 C0.986268424,5.15764051 0.622690315,5.56771506 0.622690315,6.06132219 C0.622690315,6.47115584 0.873592296,6.82311291 1.23337165,6.98108405 C1.0868743,7.1551956 0.998828841,7.37790902 0.998828841,7.62067749 C0.998828841,8.02159778 1.23919233,8.36680961 1.58647253,8.52959878 C1.55945232,8.61963571 1.54431855,8.71461112 1.54431855,8.81313983 L1.54762714,11.2924377 L1.46969129,19.2549543 L1.45333211,19.2766957 C1.18545825,19.4789325 1.05709692,19.7736152 1.05709692,20.129487 C1.05709692,20.237471 1.07370118,20.3415405 1.10323347,20.4401294 C0.722744756,20.6184567 0.459466168,20.9967323 0.459466168,21.4359559 C0.459466168,21.8226028 0.663373811,22.1623943 0.971624816,22.3599938 C0.445619075,22.4557521 0.047300691,22.9050936 0.047300691,23.4458572 C0.047300691,23.8947771 0.32215937,24.2804604 0.716433912,24.4535481 C0.55590566,24.6442819 0.459466168,24.8881946 0.459466168,25.1542703 C0.459466168,25.5934337 0.722744756,25.9717695 1.10323347,26.1500968 C1.07370118,26.2486857 1.05709692,26.3527552 1.05709692,26.460679 C1.05709692,27.0711836 1.56453775,27.5661157 2.1904754,27.5661157 C2.23422241,27.5661157 2.27723418,27.5631044 2.31969451,27.5584069 C2.31614083,27.5940603 2.31411891,27.6300751 2.31411891,27.6666319 C2.31411891,28.2770762 2.82155974,28.7720083 3.44755866,28.7720083 C3.63921223,28.7720083 3.81959207,28.7252132 3.97791459,28.6432465 C4.06308034,29.1714832 4.53057292,29.5759568 5.09609803,29.5759568 C5.34430411,29.5759568 5.57314878,29.4972422 5.75983946,29.3652884 C5.9676684,29.6161873 6.2852325,29.7769891 6.64164198,29.7769891 C6.98604248,29.7769891 7.29386459,29.6266063 7.50169353,29.3901615 C7.90135986,29.7241714 8.50193159,29.7348313 8.92046918,29.3898002 C8.95312626,29.3628794 8.98327126,29.3342121 9.01194578,29.3045813 C9.03198117,29.3333088 9.05336452,29.3614942 9.07658597,29.3887161 C9.46497856,29.8439597 10.158191,29.9010533 10.6249484,29.5162734 C10.767892,29.3984726 10.872603,29.252667 10.9385299,29.0942743 C11.3381349,29.4358123 11.9439759,29.4500255 12.3656996,29.1024649 C12.5507359,28.9498538 12.6713159,28.7505078 12.7265818,28.53731 C13.0410824,28.5966923 13.3802136,28.5214105 13.6460043,28.3023106 C13.9117337,28.0832107 14.0462833,27.7680514 14.0415655,27.4533136 C14.2647733,27.4369323 14.4855303,27.3550258 14.6705667,27.2024147 C15.092229,26.8547336 15.1835218,26.2659102 14.9109301,25.81958 C15.0811391,25.7833845 15.2454661,25.7074403 15.3883485,25.5896395 C15.8551059,25.2047994 15.9186432,24.5239516 15.5301893,24.068708 C15.5069679,24.0414861 15.482521,24.0158301 15.4572164,23.9914388 C15.4918954,23.9689146 15.5258391,23.9446437 15.5584962,23.9177832 C16.0252535,23.5330033 16.0886683,22.8520351 15.700337,22.3968517 C15.631653,22.3163304 15.5531044,22.2489382 15.4683063,22.1935911 C15.6385153,21.8268186 15.5942168,21.3828974 15.3148241,21.0553918 C15.1455955,20.8570094 14.9184664,20.7343906 14.6774289,20.6907874 C14.8612399,20.319498 14.820924,19.8629295 14.5352818,19.5281366 C14.1912489,19.1249278 13.608323,19.0348306 13.155229,19.2866329 C13.2593885,18.9498526 13.1952998,18.5711555 12.9493607,18.2828566 C12.6698455,17.9552909 12.2328655,17.8351412 11.8357113,17.936079 C11.8248051,17.9113866 11.8128574,17.8870555 11.7999907,17.8630256 L11.7356568,11.2924377 L11.7390267,8.81313983 C11.7390267,8.71461112 11.7238316,8.61963571 11.6968114,8.52959878 C12.0440916,8.36680961 12.2844551,8.02159778 12.2844551,7.62067749 C12.2844551,7.37790902 12.1964709,7.1551956 12.0499736,6.98108405 C12.4097529,6.82311291 12.6606549,6.47115584 12.6606549,6.06132219 C12.6606549,5.56771506 12.2970155,5.15764051 11.8170238,5.07019327 C12.0983771,4.88987851 12.2844551,4.57971785 12.2844551,4.22679718 C12.2844551,3.82587689 12.0440916,3.48066507 11.6968114,3.31787589 C11.7238316,3.22783896 11.7390267,3.13286355 11.7390267,3.03433485 C11.7390267,2.47706949 11.275823,2.02537921 10.7044772,2.02537921 C10.664529,2.02537921 10.6252547,2.02808935 10.5864706,2.03236536 C10.5897792,1.99990388 10.5916173,1.9669606 10.5916173,1.93365597 C10.5916173,1.37639062 10.1284136,0.924640114 9.55712913,0.924640114 C9.38214108,0.924640114 9.21750772,0.967400127 9.07297102,1.04220004 C8.99521898,0.560035721 8.5685937,0.190793974 8.05232994,0.190793974 C7.82581355,0.190793974 7.61694301,0.262703066 7.44655024,0.383153808 C7.25691858,0.154116723 6.9669874,0.00740772058 6.64164198,0.00740772058 C6.31629655,0.00740772058 6.02642664,0.154116723 5.83679499,0.383153808" id="Fill-32" fill="#FFFFFF" mask="url(#mask-18)"></path>
                                            <path d="M5.83679499,0.383153808 C5.66634094,0.262703066 5.45753167,0.190793974 5.23095401,0.190793974 C4.71475152,0.190793974 4.28800371,0.560035721 4.21025166,1.04220004 C4.06577624,0.967400127 3.90120414,0.924640114 3.7262161,0.924640114 C3.15480904,0.924640114 2.69166665,1.37639062 2.69166665,1.93365597 C2.69166665,1.9669606 2.69356603,1.99990388 2.69675209,2.03236536 C2.65802925,2.02808935 2.61881624,2.02537921 2.57880672,2.02537921 C2.00746093,2.02537921 1.54431855,2.47706949 1.54431855,3.03433485 C1.54431855,3.13286355 1.55945232,3.22783896 1.58647253,3.31787589 C1.23919233,3.48066507 0.998828841,3.82587689 0.998828841,4.22679718 C0.998828841,4.57971785 1.18496809,4.88987851 1.46638269,5.07019327 C0.986268424,5.15764051 0.622690315,5.56771506 0.622690315,6.06132219 C0.622690315,6.47115584 0.873592296,6.82311291 1.23337165,6.98108405 C1.0868743,7.1551956 0.998828841,7.37790902 0.998828841,7.62067749 C0.998828841,8.02159778 1.23919233,8.36680961 1.58647253,8.52959878 C1.55945232,8.61963571 1.54431855,8.71461112 1.54431855,8.81313983 L1.54762714,11.2924377 L1.46969129,19.2549543 L1.45333211,19.2766957 C1.18545825,19.4789325 1.05709692,19.7736152 1.05709692,20.129487 C1.05709692,20.237471 1.07370118,20.3415405 1.10323347,20.4401294 C0.722744756,20.6184567 0.459466168,20.9967323 0.459466168,21.4359559 C0.459466168,21.8226028 0.663373811,22.1623943 0.971624816,22.3599938 C0.445619075,22.4557521 0.047300691,22.9050936 0.047300691,23.4458572 C0.047300691,23.8947771 0.32215937,24.2804604 0.716433912,24.4535481 C0.55590566,24.6442819 0.459466168,24.8881946 0.459466168,25.1542703 C0.459466168,25.5934337 0.722744756,25.9717695 1.10323347,26.1500968 C1.07370118,26.2486857 1.05709692,26.3527552 1.05709692,26.460679 C1.05709692,27.0711836 1.56453775,27.5661157 2.1904754,27.5661157 C2.23422241,27.5661157 2.27723418,27.5631044 2.31969451,27.5584069 C2.31614083,27.5940603 2.31411891,27.6300751 2.31411891,27.6666319 C2.31411891,28.2770762 2.82155974,28.7720083 3.44755866,28.7720083 C3.63921223,28.7720083 3.81959207,28.7252132 3.97791459,28.6432465 C4.06308034,29.1714832 4.53057292,29.5759568 5.09609803,29.5759568 C5.34430411,29.5759568 5.57314878,29.4972422 5.75983946,29.3652884 C5.9676684,29.6161873 6.2852325,29.7769891 6.64164198,29.7769891 C6.98604248,29.7769891 7.29386459,29.6266063 7.50169353,29.3901615 C7.90135986,29.7241714 8.50193159,29.7348313 8.92046918,29.3898002 C8.95312626,29.3628794 8.98327126,29.3342121 9.01194578,29.3045813 C9.03198117,29.3333088 9.05336452,29.3614942 9.07658597,29.3887161 C9.46497856,29.8439597 10.158191,29.9010533 10.6249484,29.5162734 C10.767892,29.3984726 10.872603,29.252667 10.9385299,29.0942743 C11.3381349,29.4358123 11.9439759,29.4500255 12.3656996,29.1024649 C12.5507359,28.9498538 12.6713159,28.7505078 12.7265818,28.53731 C13.0410824,28.5966923 13.3802136,28.5214105 13.6460043,28.3023106 C13.9117337,28.0832107 14.0462833,27.7680514 14.0415655,27.4533136 C14.2647733,27.4369323 14.4855303,27.3550258 14.6705667,27.2024147 C15.092229,26.8547336 15.1835218,26.2659102 14.9109301,25.81958 C15.0811391,25.7833845 15.2454661,25.7074403 15.3883485,25.5896395 C15.8551059,25.2047994 15.9186432,24.5239516 15.5301893,24.068708 C15.5069679,24.0414861 15.482521,24.0158301 15.4572164,23.9914388 C15.4918954,23.9689146 15.5258391,23.9446437 15.5584962,23.9177832 C16.0252535,23.5330033 16.0886683,22.8520351 15.700337,22.3968517 C15.631653,22.3163304 15.5531044,22.2489382 15.4683063,22.1935911 C15.6385153,21.8268186 15.5942168,21.3828974 15.3148241,21.0553918 C15.1455955,20.8570094 14.9184664,20.7343906 14.6774289,20.6907874 C14.8612399,20.319498 14.820924,19.8629295 14.5352818,19.5281366 C14.1912489,19.1249278 13.608323,19.0348306 13.155229,19.2866329 C13.2593885,18.9498526 13.1952998,18.5711555 12.9493607,18.2828566 C12.6698455,17.9552909 12.2328655,17.8351412 11.8357113,17.936079 C11.8248051,17.9113866 11.8128574,17.8870555 11.7999907,17.8630256 L11.7356568,11.2924377 L11.7390267,8.81313983 C11.7390267,8.71461112 11.7238316,8.61963571 11.6968114,8.52959878 C12.0440916,8.36680961 12.2844551,8.02159778 12.2844551,7.62067749 C12.2844551,7.37790902 12.1964709,7.1551956 12.0499736,6.98108405 C12.4097529,6.82311291 12.6606549,6.47115584 12.6606549,6.06132219 C12.6606549,5.56771506 12.2970155,5.15764051 11.8170238,5.07019327 C12.0983771,4.88987851 12.2844551,4.57971785 12.2844551,4.22679718 C12.2844551,3.82587689 12.0440916,3.48066507 11.6968114,3.31787589 C11.7238316,3.22783896 11.7390267,3.13286355 11.7390267,3.03433485 C11.7390267,2.47706949 11.275823,2.02537921 10.7044772,2.02537921 C10.664529,2.02537921 10.6252547,2.02808935 10.5864706,2.03236536 C10.5897792,1.99990388 10.5916173,1.9669606 10.5916173,1.93365597 C10.5916173,1.37639062 10.1284136,0.924640114 9.55712913,0.924640114 C9.38214108,0.924640114 9.21750772,0.967400127 9.07297102,1.04220004 C8.99521898,0.560035721 8.5685937,0.190793974 8.05232994,0.190793974 C7.82581355,0.190793974 7.61694301,0.262703066 7.44655024,0.383153808 C7.25691858,0.154116723 6.9669874,0.00740772058 6.64164198,0.00740772058 C6.31629655,0.00740772058 6.02642664,0.154116723 5.83679499,0.383153808" id="Fill-32-Copy" fill-opacity="0.200000018" fill="url(#linearGradient-19)" style="mix-blend-mode: multiply;" mask="url(#mask-18)"></path>
                                        </g>
                                        <path d="M5.94352177,29.3886559 C6.00797815,29.3886559 6.07169929,29.4162391 6.11526249,29.4688761 C6.28976037,29.6795444 6.54856623,29.8003565 6.8255081,29.8003565 C7.09160512,29.8003565 7.34403886,29.6868317 7.51804658,29.4888709 C7.59757546,29.3984726 7.73629148,29.3879332 7.82887094,29.4653228 C8.15440018,29.7374812 8.63102204,29.7369392 8.96206561,29.4639978 C8.98571595,29.444545 9.00967265,29.4221412 9.03546745,29.3955216 C9.08148147,29.3480038 9.14697945,29.3234318 9.21345775,29.3286714 C9.28005859,29.333911 9.34059367,29.3684804 9.37833619,29.422623 C9.39555316,29.4473154 9.4124025,29.4692976 9.42992581,29.4897743 C9.57960921,29.6652108 9.79050167,29.7724119 10.0236965,29.7916238 C10.2575654,29.8110164 10.4859199,29.7395289 10.6665448,29.5905313 C10.778118,29.4986274 10.8625486,29.3849821 10.917508,29.2528477 C10.9445282,29.1879247 11.0016935,29.1398046 11.0711127,29.1235438 C11.1405933,29.1072829 11.2136888,29.1249892 11.2675454,29.1710014 C11.5937486,29.4498449 12.0730664,29.4521936 12.407296,29.1766626 C12.5499333,29.0591026 12.6497427,28.9027576 12.6959405,28.7245507 C12.7247988,28.6130133 12.8371073,28.542911 12.9521117,28.5646524 C13.21441,28.6141576 13.4825289,28.5455609 13.6876007,28.3765083 C13.8926725,28.2074557 14.0080445,27.9599294 14.0041232,27.6973468 C14.0024076,27.5823163 14.0922299,27.4858353 14.2089499,27.4772833 C14.395518,27.4636121 14.5695258,27.3942325 14.7121631,27.2766726 C15.0463927,27.0011415 15.1275759,26.5367437 14.9050421,26.1724404 C14.8683411,26.1123355 14.8633782,26.0384992 14.8916851,25.9741183 C14.919992,25.9097373 14.9781988,25.8627616 15.0479245,25.8478859 C15.1899491,25.817713 15.3184329,25.7558013 15.4300062,25.6638372 C15.8024685,25.3568082 15.8538743,24.8119493 15.5444592,24.4493323 C15.5269359,24.4287955 15.5078195,24.40862 15.4861298,24.3877218 C15.4384615,24.3417698 15.4144435,24.2770878 15.4207544,24.2118035 C15.4270652,24.1463987 15.4630922,24.0873779 15.5187256,24.0511222 C15.549851,24.0308262 15.5765036,24.0114337 15.6000926,23.9919809 C15.9726162,23.6848917 16.0239607,23.140093 15.7146069,22.7775363 C15.6620982,22.7159859 15.5998476,22.6615422 15.529693,22.6157107 C15.4390742,22.5565694 15.4056206,22.4414787 15.4507769,22.3442147 C15.5927402,22.0383903 15.5461135,21.6904081 15.329094,21.4360161 C15.1980368,21.2824414 15.022436,21.1819855 14.8212243,21.1456094 C14.7532142,21.1333234 14.6949461,21.0905032 14.6637595,21.0298562 C14.6325729,20.9691491 14.6320215,20.8976616 14.662289,20.8365328 C14.813688,20.5306481 14.7693896,20.1665256 14.5494904,19.9088212 C14.2798397,19.5927585 13.8165747,19.5120565 13.4479725,19.7168829 C13.3692401,19.7606668 13.2712688,19.7528977 13.2006854,19.6972495 C13.1300407,19.6416615 13.1009986,19.549336 13.1273449,19.4642375 C13.2139198,19.1844907 13.1526495,18.8851706 12.9635693,18.6635412 C12.7465498,18.4091492 12.4060706,18.3033935 12.0749045,18.3875283 C11.9696421,18.4142684 11.8602133,18.3618723 11.8167113,18.2638857 C11.8081947,18.2446135 11.798514,18.2249198 11.7879755,18.2052864 C11.7716164,18.1746317 11.7628547,18.1406645 11.7625484,18.106035 L11.6982145,11.535447 L11.6982145,11.533038 L11.7015231,9.05374018 C11.7015231,8.9799641 11.6903719,8.90528464 11.6684371,8.83199037 C11.6376794,8.72948679 11.6872471,8.62017774 11.7854022,8.57416556 C12.0701254,8.44070614 12.2470128,8.1676443 12.2470128,7.86157897 C12.2470128,7.67674731 12.1834755,7.50347892 12.0632631,7.36062434 C12.0191485,7.30822827 12.0025442,7.23860774 12.0182907,7.17242006 C12.0340372,7.10623237 12.0803575,7.05112616 12.1435272,7.02342249 C12.4349289,6.89544358 12.6232126,6.61232411 12.6232126,6.30222368 C12.6232126,5.92178001 12.3444939,5.59493693 11.9605128,5.52495504 C11.871487,5.50875442 11.8015163,5.44094065 11.7838092,5.35373432 C11.766102,5.26652798 11.8041509,5.17745466 11.8799423,5.12891301 C12.1097673,4.98160175 12.2470128,4.73443683 12.2470128,4.46769866 C12.2470128,4.16163333 12.0701254,3.88851128 11.7854022,3.75511208 C11.6872471,3.7090999 11.6376794,3.59979085 11.6684371,3.49722704 C11.6903719,3.42399299 11.7015231,3.34931353 11.7015231,3.27523633 C11.7015231,2.83884329 11.3367196,2.48375451 10.8882821,2.48375451 C10.8598527,2.48375451 10.8294013,2.48562149 10.7951512,2.48941569 C10.7287342,2.49670296 10.6626235,2.47429912 10.6150777,2.42822672 C10.5674707,2.38215431 10.5436365,2.31741203 10.5501312,2.25212773 C10.5528271,2.22460474 10.5541137,2.19924986 10.5541137,2.17455745 C10.5541137,1.73810419 10.1893102,1.38307563 9.74093398,1.38307563 C9.6066907,1.38307563 9.47845191,1.41415193 9.3599551,1.47552158 C9.29678539,1.50822396 9.22148416,1.50900688 9.15770175,1.47756924 C9.09385807,1.4461316 9.04943709,1.38638803 9.03828589,1.31712885 C8.97585143,0.930120623 8.63855829,0.649229495 8.23613479,0.649229495 C8.06445534,0.649229495 7.89963817,0.701565342 7.75951293,0.800636076 C7.66448266,0.86784759 7.53262892,0.850623134 7.45867564,0.761369135 C7.30317155,0.573526204 7.07236624,0.465783016 6.8255081,0.465783016 C6.57858869,0.465783016 6.34778337,0.573526204 6.19221802,0.761369135 C6.118326,0.850623134 5.98641099,0.86784759 5.89138072,0.800636076 C5.75131676,0.701565342 5.58649958,0.649229495 5.41475886,0.649229495 C5.01239663,0.649229495 4.67510349,0.930120623 4.61266903,1.31712885 C4.60151783,1.38638803 4.55703558,1.4461316 4.49325317,1.47756924 C4.42947076,1.50900688 4.35410826,1.50822396 4.29099983,1.47552158 C4.17244175,1.41415193 4.04426423,1.38307563 3.91002094,1.38307563 C3.46158343,1.38307563 3.09677992,1.73810419 3.09677992,2.17455745 C3.09677992,2.19937031 3.09812786,2.22466496 3.10082376,2.25206751 C3.10737968,2.31735181 3.08348426,2.38215431 3.03593848,2.42822672 C2.98839271,2.47429912 2.92209822,2.49676319 2.85580373,2.48941569 C2.82155362,2.48562149 2.79104099,2.48375451 2.76261156,2.48375451 C2.31423532,2.48375451 1.94943181,2.83884329 1.94943181,3.27523633 C1.94943181,3.34925331 1.96058301,3.42399299 1.98257905,3.49722704 C2.01327549,3.59979085 1.96370779,3.7090999 1.86549146,3.75511208 C1.58082953,3.88851128 1.4039421,4.16157311 1.4039421,4.46769866 C1.4039421,4.73443683 1.54112636,4.98160175 1.77101262,5.12891301 C1.84680401,5.17745466 1.88485289,5.26652798 1.86714576,5.35373432 C1.84943864,5.44094065 1.77946793,5.50875442 1.69044214,5.52495504 C1.30646102,5.59493693 1.02774231,5.92178001 1.02774231,6.30222368 C1.02774231,6.61238434 1.21602602,6.89544358 1.50742768,7.02342249 C1.57053612,7.05112616 1.61691775,7.10623237 1.63266423,7.17242006 C1.6484107,7.23860774 1.63174517,7.30822827 1.58769181,7.36062434 C1.46747943,7.50347892 1.4039421,7.67668708 1.4039421,7.86157897 C1.4039421,8.16770453 1.58082953,8.44070614 1.86549146,8.57416556 C1.96364652,8.62017774 2.01327549,8.72948679 1.98257905,8.83199037 C1.96058301,8.90528464 1.94943181,8.9799641 1.94943181,9.05398108 L1.95274041,11.533038 C1.95274041,11.5338209 1.95274041,11.5346039 1.95274041,11.535447 L1.87480455,19.4979637 C1.87431439,19.5438555 1.85918062,19.588362 1.83142516,19.6252802 L1.81506599,19.6470215 C1.80275065,19.6632824 1.78829085,19.6777967 1.77193168,19.6901429 C1.56636974,19.8453437 1.46214891,20.0741398 1.46214891,20.3703884 C1.46214891,20.4534994 1.47464806,20.5373332 1.49934,20.6195408 C1.5300977,20.7220444 1.48046874,20.8313534 1.38231368,20.8773656 C1.06297274,21.0270257 0.864518161,21.3333921 0.864518161,21.6768574 C0.864518161,21.9761173 1.01849049,22.2534551 1.27631602,22.4186533 C1.35204614,22.4672552 1.39015628,22.5562683 1.37244916,22.6434746 C1.35468076,22.7307412 1.28471005,22.7985549 1.19574554,22.8147556 C0.765015153,22.893169 0.452413954,23.2599415 0.452413954,23.6867587 C0.452413954,24.0347409 0.663612765,24.3523093 0.990489949,24.4958263 C1.05359838,24.52353 1.09991875,24.5786964 1.11572649,24.6448841 C1.1314117,24.7110718 1.11480744,24.7806923 1.07075408,24.8330282 C0.935836819,24.9933481 0.864518161,25.1876954 0.864518161,25.3951116 C0.864518161,25.7386371 1.06297274,26.0449433 1.38231368,26.1946033 C1.48046874,26.2406155 1.5300977,26.3499246 1.49934,26.4524884 C1.47464806,26.5346358 1.46214891,26.6184695 1.46214891,26.7015805 C1.46214891,27.1911526 1.87137341,27.5894832 2.37428024,27.5894832 C2.40620208,27.5894832 2.44032965,27.5874355 2.47874615,27.5831595 C2.54497937,27.5756915 2.61127386,27.5982761 2.6588809,27.6444087 C2.70642668,27.6904209 2.73026083,27.7551632 2.72376618,27.8205077 C2.72070266,27.8512226 2.71923217,27.879649 2.71923217,27.9074731 C2.71923217,28.3971054 3.12839541,28.795436 3.6313635,28.795436 C3.78190469,28.795436 3.92558361,28.7605053 4.05860148,28.6917279 C4.12170992,28.6590255 4.19701115,28.6582426 4.26079356,28.6896802 C4.32463723,28.7211179 4.36905822,28.7808012 4.38027069,28.8501206 C4.4502414,29.2842853 4.82864693,29.5993844 5.27990287,29.5993844 C5.47253678,29.5993844 5.65732808,29.5406647 5.81448646,29.4296091 C5.85345439,29.4020259 5.89867189,29.3886559 5.94352177,29.3886559 M6.8255081,30.2354246 C6.48092379,30.2354246 6.15514947,30.109132 5.90626941,29.8837686 C5.71345169,29.9827792 5.50016969,30.0343923 5.27990287,30.0343923 C4.95553777,30.0343923 4.64177244,29.9205061 4.3965686,29.7136922 C4.22372501,29.5679468 4.09230016,29.3825731 4.01295509,29.1766023 C3.88931157,29.2121353 3.76046008,29.2304438 3.6313635,29.2304438 C2.92362998,29.2304438 2.34101046,28.6978107 2.28163951,28.0214797 C1.57770475,27.9748051 1.01959335,27.4006164 1.01959335,26.7015805 C1.01959335,26.6346701 1.02492387,26.5676393 1.03552364,26.50103 C0.657914624,26.2587434 0.421962602,25.8414418 0.421962602,25.3951116 C0.421962602,25.1752287 0.478637653,24.9591401 0.584390234,24.7673223 C0.228961078,24.5223857 0.00985839506,24.120562 0.00985839506,23.6867587 C0.00985839506,23.1864665 0.297032409,22.7417022 0.730948852,22.5176036 C0.533413324,22.2839894 0.421962602,21.9885237 0.421962602,21.6768574 C0.421962602,21.2305874 0.657914624,20.8132858 1.03552364,20.5709389 C1.02492387,20.5043297 1.01959335,20.4372988 1.01959335,20.3703884 C1.01959335,19.9708533 1.1621694,19.6376866 1.43316805,19.401302 L1.51018485,11.5327369 L1.50681498,9.05428221 C1.50681498,8.9961045 1.51116517,8.93798702 1.51974302,8.88011044 C1.17583268,8.65456643 0.961386545,8.27123194 0.961386545,7.86157897 C0.961386545,7.66331705 1.01101551,7.46842775 1.10390132,7.29437643 C0.782661006,7.0664234 0.585186748,6.69874752 0.585186748,6.30222368 C0.585186748,5.84643807 0.842277033,5.4403384 1.23293663,5.2293087 C1.05905144,5.01556886 0.961386545,4.74877047 0.961386545,4.46769866 C0.961386545,4.05804569 1.17583268,3.67471121 1.51974302,3.44910697 C1.51116517,3.39135084 1.50681498,3.33329358 1.50681498,3.27523633 C1.50681498,2.6325714 2.01560376,2.10379264 2.66035139,2.05278176 C2.7230922,1.43342404 3.25963644,0.948007558 3.91002094,0.948007558 C4.02355486,0.948007558 4.13678242,0.963304802 4.24590487,0.992935684 C4.42971584,0.529441233 4.88593468,0.214221643 5.41475886,0.214221643 C5.61437758,0.214221643 5.807808,0.259932699 5.98334748,0.34774129 C6.21274357,0.144420439 6.5106399,0.0307751644 6.8255081,0.0307751644 C7.14025376,0.0307751644 7.43821135,0.144480664 7.66760745,0.34774129 C7.84314693,0.259932699 8.03657734,0.214221643 8.23613479,0.214221643 C8.76502024,0.214221643 9.22123908,0.529441233 9.40498879,0.992935684 C9.51417251,0.963304802 9.62740007,0.948007558 9.74093398,0.948007558 C10.3913185,0.948007558 10.9278627,1.43342404 10.9906035,2.05278176 C11.6353512,2.10379264 12.1440787,2.6325714 12.1440787,3.27523633 C12.1440787,3.33329358 12.1397897,3.39135084 12.1311506,3.44910697 C12.4751835,3.67471121 12.6895684,4.05804569 12.6895684,4.46769866 C12.6895684,4.74877047 12.5919035,5.01556886 12.4180183,5.2293087 C12.8086166,5.4403384 13.0657682,5.84643807 13.0657682,6.30222368 C13.0657682,6.69874752 12.8683552,7.0664234 12.5470536,7.29437643 C12.6399394,7.46842775 12.6895684,7.66337728 12.6895684,7.86157897 C12.6895684,8.27123194 12.4751835,8.65456643 12.1311506,8.88011044 C12.1397285,8.93792679 12.1440787,8.99598405 12.1440787,9.05398108 L12.1407701,11.5323153 L12.2033883,17.9282497 C12.6188624,17.9003653 13.0320082,18.0667078 13.3026393,18.383975 C13.500236,18.6155416 13.6055597,18.9028768 13.608562,19.1973187 C14.0747066,19.1002956 14.5705674,19.25646 14.8886216,19.6293153 C15.1647057,19.9529062 15.2577753,20.3868902 15.1502459,20.788473 C15.3500484,20.8669466 15.528774,20.9931188 15.668164,21.1565102 C15.9525195,21.4897974 16.042832,21.9463659 15.9164926,22.360054 C15.9658765,22.4026936 16.0117679,22.4488262 16.0536769,22.4979701 C16.4993572,23.0203047 16.4496057,23.7924542 15.9555831,24.2623326 C16.3399931,24.8053245 16.2431247,25.5613336 15.7143618,25.9971846 C15.619209,26.075598 15.5130275,26.140521 15.3998612,26.1900262 C15.5776677,26.689957 15.4273716,27.254871 14.9965799,27.6099598 C14.8326818,27.7450453 14.6413346,27.8377924 14.4352825,27.8830216 C14.3920256,28.2039024 14.2289853,28.4979829 13.9720176,28.7098557 C13.7150498,28.9217286 13.3920327,29.0283275 13.0629497,29.0142347 C12.9817666,29.2058719 12.855611,29.3748643 12.6917128,29.51001 C12.2609212,29.865159 11.6688048,29.912195 11.1989226,29.6530453 C11.1296872,29.7539227 11.0461144,29.8454051 10.9509616,29.9238787 C10.6802081,30.147074 10.3377069,30.2540342 9.98675052,30.225126 C9.6748233,30.1994098 9.38924231,30.0692026 9.17099741,29.855282 C8.73469143,30.1662859 8.15813767,30.1861 7.70804586,29.9150256 C7.46376107,30.1205146 7.15158877,30.2354246 6.8255081,30.2354246" id="Fill-35" fill="#333333"></path>
                                        <g id="Group-39" transform="translate(2.634624, 5.420283)">
                                            <mask id="mask-21" fill="white">
                                                <use xlink:href="#path-20"></use>
                                            </mask>
                                            <g id="Clip-38"></g>
                                            <path d="M4.74704098,1.56013822 C4.57174658,1.50436953 4.3850559,1.47341369 4.19082897,1.47341369 C3.99666331,1.47341369 3.80997263,1.50436953 3.63467823,1.56013822 C3.50558165,0.705058413 2.75777734,0.0483609726 1.85195685,0.0483609726 C0.855272469,0.0483609726 0.0473619614,0.842492709 0.0473619614,1.82211859 C0.0473619614,2.80180469 0.855272469,3.59593643 1.85195685,3.59593643 C2.04618378,3.59593643 2.23281319,3.56498059 2.40804632,3.50915167 C2.53720417,4.36423148 3.28500848,5.02098914 4.19082897,5.02098914 C5.09671073,5.02098914 5.84451505,4.36423148 5.97355035,3.50915167 C6.14884475,3.56498059 6.33553543,3.59593643 6.52976236,3.59593643 C7.52638547,3.59593643 8.33435725,2.80180469 8.33435725,1.82211859 C8.33435725,0.842492709 7.52638547,0.0483609726 6.52976236,0.0483609726 C5.62388061,0.0483609726 4.87613756,0.705058413 4.74704098,1.56013822" id="Fill-37" fill="url(#linearGradient-22)" mask="url(#mask-21)"></path>
                                        </g>
                                        <g id="Group-54" transform="translate(3.737490, 6.383889)" fill="#333333">
                                            <path d="M1.75912618,1.07458924 C1.75912618,1.54133586 1.374226,1.91979209 0.899258435,1.91979209 C0.424352145,1.91979209 0.0394519624,1.54133586 0.0394519624,1.07458924 C0.0394519624,0.607782395 0.424352145,0.229386391 0.899258435,0.229386391 C1.374226,0.229386391 1.75912618,0.607782395 1.75912618,1.07458924" id="Fill-40"></path>
                                            <path d="M1.58632548,0.928873958 C1.53069203,0.928873958 1.47947003,0.893160313 1.46304959,0.838054099 C1.46127275,0.832332689 1.35227284,0.485795907 1.04389929,0.344446962 C0.834844943,0.248628397 0.575365116,0.265431276 0.272628439,0.394373794 C0.207498083,0.42213769 0.131706691,0.392747709 0.103522341,0.328607689 C0.0752767215,0.26458812 0.105237911,0.190149562 0.170429536,0.162445892 C0.544791223,0.00296911077 0.876202412,-0.0123883587 1.15535001,0.116614385 C1.57015011,0.308371965 1.7043934,0.748559198 1.70990773,0.767168838 C1.72963677,0.834199675 1.69048503,0.904362232 1.62222989,0.923815027 C1.61034345,0.927247873 1.59821192,0.928873958 1.58632548,0.928873958" id="Fill-42"></path>
                                            <path d="M4.41681844,1.07458924 C4.41681844,1.54133586 4.80177989,1.91979209 5.27668618,1.91979209 C5.75159247,1.91979209 6.13649265,1.54133586 6.13649265,1.07458924 C6.13649265,0.607782395 5.75159247,0.229386391 5.27668618,0.229386391 C4.80177989,0.229386391 4.41681844,0.607782395 4.41681844,1.07458924" id="Fill-44"></path>
                                            <path d="M4.5895885,0.928669192 C4.57757952,0.928669192 4.56538672,0.926982881 4.55337774,0.923550035 C4.48542895,0.903856339 4.44639975,0.834055134 4.46606753,0.767204973 C4.47164313,0.748535108 4.60588641,0.3084081 5.02062524,0.11665052 C5.29971157,-0.0124124489 5.63106149,0.00294502062 6.00554572,0.162421802 C6.07067607,0.190185698 6.10063726,0.26456403 6.07239164,0.328643825 C6.04420729,0.392663394 5.96829336,0.422053374 5.90328554,0.394349704 C5.60042633,0.265467411 5.34100777,0.248664533 5.13201469,0.344422872 C4.82266082,0.486253619 4.71402853,0.834597163 4.71298694,0.83815046 C4.69632141,0.893015772 4.64509942,0.928669192 4.5895885,0.928669192" id="Fill-46"></path>
                                            <g id="Group" transform="translate(2.511445, 1.850819)">
                                                <path d="M1.0389305,0.206945206 C1.0389305,0.321238911 0.830753803,0.413878247 0.573843156,0.413878247 C0.31699381,0.413878247 0.108755807,0.321238911 0.108755807,0.206945206 C0.108755807,0.0926515015 0.31699381,1.21653757e-05 0.573843156,1.21653757e-05 C0.830753803,1.21653757e-05 1.0389305,0.0926515015 1.0389305,0.206945206" id="Fill-1"></path>
                                            </g>
                                        </g>
                                    </g>
                                    <g transform="translate(6.195849, 8.349273)">
                                        <path d="M0.770638778,0.968121003 C0.500268867,1.02119802 0.231554765,0.998936376 0.214287046,0.997510754 C0.15574238,0.992356581 0.111272088,0.946517342 0.111863449,0.892014706 C0.112454809,0.837512069 0.157871277,0.79233081 0.216534215,0.788382933 C0.289981159,0.783338423 0.340838141,0.760747793 0.372653323,0.719075757 C0.449530157,0.617637249 0.414639902,0.422546324 0.394651925,0.35598073 C0.377975565,0.300271798 0.413102365,0.242479264 0.473066295,0.226797419 C0.532911954,0.211444564 0.595477869,0.243575897 0.612390772,0.299065502 C0.621852537,0.330209866 0.694589849,0.585725243 0.593467244,0.782680443 C0.757747124,0.76502466 0.930779136,0.723571951 1.0303642,0.635731686 C1.09186567,0.581448376 1.11977788,0.512908844 1.11575663,0.426165211 C1.11303637,0.368153351 1.16117309,0.319133877 1.22373901,0.316830949 C1.28606838,0.314199031 1.33893599,0.359051301 1.34165624,0.416953498 C1.34875257,0.565766531 1.29635805,0.690672975 1.18601022,0.787834616 C1.07731821,0.883680299 0.923682813,0.938073272 0.770638778,0.968121003" id="Fill-28" fill="#333333" transform="translate(0.727075, 0.613156) rotate(16.000000) translate(-0.727075, -0.613156) "></path>
                                    </g>
                                </g>
                            </g>
                        </g>
                    </g>
                </g>
            </g>
        </g>
    </g>
</svg>