<?xml version="1.0" encoding="UTF-8"?>
<svg width="13px" height="11px" viewBox="0 0 13 11" version="1.1" xmlns="http://www.w3.org/2000/svg" xmlns:xlink="http://www.w3.org/1999/xlink">
    <!-- Generator: Sketch 52.5 (67469) - http://www.bohemiancoding.com/sketch -->
    <title>codemate/lr/icon/lr-directory</title>
    <desc>Created with Sketch.</desc>
    <g id="Page-1" stroke="none" stroke-width="1" fill="none" fill-rule="evenodd">
        <g id="codemate-연습실1" transform="translate(-13.000000, -62.000000)" fill-rule="nonzero">
            <g id="codemate/lr/icon/lr-directory" transform="translate(8.000000, 56.000000)">
                <rect id="Rectangle" x="0" y="0" width="23" height="23"></rect>
                <path d="M17.4561667,9.59183673 L16.7,9.59183673 L16.7,8.18473469 C16.7,7.84642857 16.4343667,7.57142857 16.1080667,7.57142857 L10.7449167,7.57142857 L9.66158333,6 L5.59193333,6 C5.26563333,6 5,6.27522449 5,6.61330612 L5,16.4205918 L5.0013,16.4205918 C5.00021667,16.5469796 5.03813333,16.6706735 5.1144,16.7741633 C5.22056667,16.9178367 5.38133333,17 5.55575,17 L15.2535333,17 C15.504,17 15.7245667,16.8251224 15.7843667,16.593 L18,10.2987551 L18,10.2590204 C18,9.87244898 17.7712,9.59183673 17.4561667,9.59183673 Z M5.43333333,6.61330612 C5.43333333,6.52261224 5.50461667,6.44897959 5.59193333,6.44897959 L9.43841667,6.44897959 L10.52175,8.02040816 L16.10785,8.02040816 C16.1953833,8.02040816 16.26645,8.09404082 16.26645,8.18473469 L16.26645,9.59183673 L7.75838333,9.59183673 C7.72718333,9.59183673 7.6962,9.59453061 7.66608333,9.59991837 C7.45526667,9.6365102 7.27998333,9.79589796 7.22776667,9.99861224 L5.43333333,15.0691633 L5.43333333,6.61330612 Z M15.3716167,16.4574082 C15.3573167,16.5124082 15.3085667,16.5510204 15.2535333,16.5510204 L5.55575,16.5510204 C5.5031,16.5510204 5.47233333,16.5198163 5.45868333,16.5011837 C5.44503333,16.4827755 5.42401667,16.4437143 5.43203333,16.4095918 L7.64008333,10.1344286 C7.65438333,10.0794286 7.70313333,10.0408163 7.75816667,10.0408163 L16.7,10.0408163 L17.4561667,10.0408163 C17.5385,10.0408163 17.5595167,10.1633878 17.5649333,10.2246735 L15.3716167,16.4574082 Z" id="Shape" fill="#FFFFFF"></path>
            </g>
        </g>
    </g>
</svg>