<?xml version="1.0" encoding="UTF-8"?>
<svg width="76px" height="128px" viewBox="0 0 76 128" version="1.1" xmlns="http://www.w3.org/2000/svg" xmlns:xlink="http://www.w3.org/1999/xlink">
    <!-- Generator: Sketch 52.4 (67378) - http://www.bohemiancoding.com/sketch -->
    <title>codemate/whole/button/alphaco-ask</title>
    <desc>Created with Sketch.</desc>
    <defs>
        <polygon id="path-1" points="0 0 76 0 76 128 0 128"></polygon>
        <filter x="-11.1%" y="-9.2%" width="122.2%" height="119.2%" filterUnits="objectBoundingBox" id="filter-3">
            <feOffset dx="0" dy="2" in="SourceAlpha" result="shadowOffsetOuter1"></feOffset>
            <feGaussianBlur stdDeviation="2" in="shadowOffsetOuter1" result="shadowBlurOuter1"></feGaussianBlur>
            <feColorMatrix values="0 0 0 0 0   0 0 0 0 0   0 0 0 0 0  0 0 0 0.1 0" type="matrix" in="shadowBlurOuter1" result="shadowMatrixOuter1"></feColorMatrix>
            <feMerge>
                <feMergeNode in="shadowMatrixOuter1"></feMergeNode>
                <feMergeNode in="SourceGraphic"></feMergeNode>
            </feMerge>
        </filter>
        <path d="M0.3225,3.09437679 C1.10486111,8.86303725 5.14208333,13.2051039 6.69353395,14.6853689 C6.03592593,11.1072887 8.3412037,7.63655086 11.9265278,6.87720272 C12.9092901,6.66914398 13.8854167,6.69299785 14.8044753,6.89973138 L14.8721605,6.82485673 C14.8721605,6.82485673 6.0837037,0.651343123 2.1466821,0.651343123 C0.851373457,0.650680516 0.0816203704,1.31858883 0.3225,3.09437679" id="path-4"></path>
        <linearGradient x1="99.9990558%" y1="50.0006395%" x2="-0.00101354997%" y2="50.0006395%" id="linearGradient-6">
            <stop stop-color="#FBFBFB" offset="0%"></stop>
            <stop stop-color="#FFF2D2" offset="100%"></stop>
        </linearGradient>
        <linearGradient x1="50.0001729%" y1="12.0696466%" x2="50.0001728%" y2="0.000151005208%" id="linearGradient-7">
            <stop stop-color="#FEFEFE" offset="0%"></stop>
            <stop stop-color="#ED989F" offset="100%"></stop>
        </linearGradient>
        <path d="M0.327808642,11.4538324 L0.420046296,11.494914 C1.17652778,10.9330229 2.05908951,10.5155802 3.04118827,10.3081841 C6.62717593,9.54883596 10.1448148,11.7877865 10.9975154,15.3227973 C11.8143827,13.341601 13.739429,7.73726719 12.1096759,2.14817335 C11.7533333,0.924337393 11.1561111,0.420093123 10.4155556,0.420093123 C6.95033951,0.419430516 0.327808642,11.4538324 0.327808642,11.4538324" id="path-8"></path>
        <linearGradient x1="-2.29693386%" y1="65.0174061%" x2="104.060837%" y2="46.2556396%" id="linearGradient-10">
            <stop stop-color="#FEFEFE" offset="0%"></stop>
            <stop stop-color="#FBFBFB" offset="100%"></stop>
        </linearGradient>
        <linearGradient x1="-0.00101354997%" y1="50.0006395%" x2="99.9990558%" y2="50.0006395%" id="linearGradient-11">
            <stop stop-color="#FBFBFB" offset="0%"></stop>
            <stop stop-color="#FFF2D2" offset="100%"></stop>
        </linearGradient>
        <path d="M4.17318981,10.0491046 C7.40349846,9.3652937 10.5588225,10.775985 12.2343627,13.3946096 C12.9954892,10.8084527 13.6564151,6.93484957 12.5316466,3.07383596 C12.423483,2.70476361 12.1872485,2.07661175 11.8176343,2.02890401 C10.6510602,1.87849212 7.51497994,4.86883954 4.05772685,10.0742837 C4.09621451,10.0656698 4.13470216,10.0570559 4.17318981,10.0491046 Z M12.0890386,19.0327364 L11.4075417,16.206053 C10.665659,13.1315544 7.66030401,11.2364971 4.56470216,11.8918159 C3.74783488,12.0647564 2.99002623,12.4086497 2.31052006,12.912894 L1.86724846,13.2422099 L0.299208333,12.543159 L0.845998457,11.6320738 C0.917665123,11.5128044 2.61709414,8.6894341 4.76908488,5.8700394 C8.9104892,0.445272206 10.9118472,0.013252149 12.0591775,0.16101361 C12.8116775,0.257754298 13.8183287,0.750734241 14.3425571,2.54772564 C16.040659,8.37138252 14.1069861,14.1360673 13.1972176,16.3438754 L12.0890386,19.0327364 Z" id="path-12"></path>
        <linearGradient x1="29.0676601%" y1="27.3778693%" x2="21.2537122%" y2="0%" id="linearGradient-14">
            <stop stop-color="#FEFEFE" offset="0%"></stop>
            <stop stop-color="#B3B3B3" offset="100%"></stop>
        </linearGradient>
        <path d="M29.6135957,0.232575215 C25.2797531,1.14962393 22.380571,5.09876433 22.6446759,9.38583453 C21.7488426,9.29240688 20.8231481,9.3301755 19.8947994,9.52696991 C18.965787,9.72310172 18.1044599,10.0630193 17.3234259,10.5122672 C15.8237346,6.48758954 11.5681944,4.05250716 7.23435185,4.97021848 C2.4658642,5.97936963 -0.579305556,10.6580408 0.43132716,15.4182128 C1.44262346,20.1797099 6.1275,23.2210781 10.8959877,22.2112643 C11.8243364,22.0144699 12.6856636,21.6752149 13.466034,21.2266297 C14.9663889,25.2519699 19.221929,27.6857271 23.5557716,26.7680158 C27.8896142,25.850967 30.7887963,21.901164 30.5246914,17.6154191 C31.4205247,17.7088467 32.3455556,17.6704155 33.2752315,17.4736211 C38.0430556,16.4644699 41.0888889,11.7871239 40.0775926,7.02562679 C39.1976852,2.88101719 35.5327315,0.0390938395 31.4530401,0.0390938395 C30.8458642,0.0390938395 30.2307253,0.102041547 29.6135957,0.232575215" id="path-15"></path>
        <linearGradient x1="49.9990211%" y1="100.000674%" x2="49.9990211%" y2="0.000604841799%" id="linearGradient-17">
            <stop stop-color="#FBFBFB" offset="0%"></stop>
            <stop stop-color="#FFF2D2" offset="100%"></stop>
        </linearGradient>
    </defs>
    <g id="Page-1" stroke="none" stroke-width="1" fill="none" fill-rule="evenodd">
        <g id="codemate-질문버튼" transform="translate(-169.000000, -120.000000)">
            <g id="codemate/whole/button/alphaco-ask-on" transform="translate(169.000000, 120.000000)">
                <g id="codemate/whole/button/alphaco-ask" transform="translate(38.000000, 64.000000) scale(-1, 1) translate(-38.000000, -64.000000) ">
                    <mask id="mask-2" fill="white">
                        <use xlink:href="#path-1"></use>
                    </mask>
                    <g id="Rectangle" transform="translate(38.000000, 64.000000) scale(-1, 1) translate(-38.000000, -64.000000) "></g>
                    <g id="Group" filter="url(#filter-3)" mask="url(#mask-2)">
                        <g transform="translate(61.412015, 64.412218) rotate(-7.000000) translate(-61.412015, -64.412218) translate(7.412015, -0.587782)">
                            <g id="Group-3" stroke-width="1" fill="none" transform="translate(0.663580, 10.092174)">
                                <mask id="mask-5" fill="white">
                                    <use xlink:href="#path-4"></use>
                                </mask>
                                <g id="Clip-2"></g>
                                <path d="M0.3225,3.09437679 C1.10486111,8.86303725 5.14208333,13.2051039 6.69353395,14.6853689 C6.03592593,11.1072887 8.3412037,7.63655086 11.9265278,6.87720272 C12.9092901,6.66914398 13.8854167,6.69299785 14.8044753,6.89973138 L14.8721605,6.82485673 C14.8721605,6.82485673 6.0837037,0.651343123 2.1466821,0.651343123 C0.851373457,0.650680516 0.0816203704,1.31858883 0.3225,3.09437679" id="Fill-1" fill="url(#linearGradient-6)" mask="url(#mask-5)"></path>
                            </g>
                            <path d="M2.41894907,11.7150322 C2.31277623,11.7375609 2.22252932,11.7706913 2.14887191,11.8157486 C1.82968981,12.0092299 1.86950463,12.6784635 1.92126389,13.0601254 C2.46075463,17.0450466 4.63995216,20.3176648 6.38649537,22.3724105 C6.85431944,19.2998997 9.16424228,16.7316332 12.3938873,16.0478223 C12.432375,16.0398711 12.4701991,16.0319198 12.5093503,16.0246311 C7.62009105,12.9136891 3.75871759,11.4314362 2.41894907,11.7150322 Z M8.81055401,27.4658739 L6.70567747,25.4581734 C4.97638735,23.8089434 0.866171296,19.3237536 0.0512947531,13.3125788 C-0.19953858,11.4579405 0.520445988,10.5992013 1.16876389,10.2062751 C2.1561713,9.60661533 4.1615108,9.18983524 10.1509861,12.4704047 C13.263841,14.1752937 15.9652762,16.067038 16.0787485,16.1465509 L16.947375,16.7568123 L15.8013719,18.0323317 L15.2618812,17.9110745 C14.4343966,17.7248818 13.6016034,17.7182557 12.7853997,17.8905337 C9.68979784,18.546515 7.71299228,21.4964434 8.28499846,24.6067228 L8.81055401,27.4658739 Z" id="Fill-4" fill="#4D4D4D"></path>
                            <g id="Group-32-Copy" stroke-width="1" fill="none" transform="translate(0.000000, 2.140885)">
                                <path d="M25.4012546,38.5059742 C25.8830139,40.7740795 24.4317639,43.003091 22.1596651,43.484144 C19.8875664,43.965197 17.6552824,42.5160745 17.1741867,40.2473066 C16.6924275,37.9785387 18.1430139,35.7501898 20.4151127,35.2691368 C22.6872114,34.7880838 24.9188318,36.2372063 25.4012546,38.5059742" id="Fill-18" fill="#060101"></path>
                                <path d="M24.424,37.972774 C24.1579043,38.0290956 23.8758827,37.9071759 23.7405123,37.6560476 C23.7259136,37.6302059 22.8473333,36.0558506 21.2262068,35.6814774 C20.1266543,35.4276988 18.9030123,35.7722547 17.5871327,36.7052059 C17.3044475,36.9066386 16.9122716,36.8403779 16.7105432,36.5567819 C16.5094784,36.2745111 16.5758364,35.8829101 16.8591852,35.6814774 C18.4856204,34.5278779 20.0549877,34.1177239 21.5241543,34.4616171 C23.7060062,34.9738127 24.8022407,36.976875 24.8486914,37.0616888 C25.0125957,37.3671508 24.8971327,37.7474875 24.5905586,37.9118141 C24.5374722,37.9403062 24.4810679,37.9601845 24.424,37.972774" id="Fill-20" fill="#060101"></path>
                                <path d="M38.1155849,35.8141314 C38.5980077,38.0822367 40.8296281,39.5313592 43.1017269,39.0503062 C45.3738256,38.5692532 46.824412,36.3402418 46.3426528,34.0721365 C45.8615571,31.8033686 43.6292731,30.3542461 41.3571744,30.8352991 C39.0850756,31.3163521 37.6338256,33.5453635 38.1155849,35.8141314" id="Fill-22" fill="#060101"></path>
                                <path d="M38.7921049,34.9295505 C38.7343735,34.94214 38.6739877,34.9454531 38.6129383,34.9414774 C38.2678765,34.9149731 38.0090802,34.614812 38.0342963,34.2702561 C38.0415957,34.1735154 38.2293889,31.898784 40.0157469,30.5470648 C41.2174907,29.6373048 42.8187099,29.3755749 44.7749444,29.7718141 C45.1153611,29.8400627 45.3350062,30.1713664 45.2666574,30.511284 C45.1976451,30.8512016 44.8645278,31.0711873 44.5254383,31.0022761 C42.943463,30.6828994 41.6846512,30.8637912 40.7835093,31.540976 C39.4503765,32.5428385 39.2897901,34.3464559 39.288463,34.3643463 C39.2659012,34.6479423 39.0568735,34.8732289 38.7921049,34.9295505" id="Fill-24" fill="#060101"></path>
                                <path d="M34.9751914,41.4611372 C35.0919815,42.0111014 34.1901759,42.6670827 32.9625525,42.9274875 C31.7342654,43.1872296 30.6440031,42.9526665 30.527213,42.4027024 C30.4104228,41.8527382 31.3115648,41.1960942 32.5391883,40.9356895 C33.7681389,40.6759473 34.8577377,40.911173 34.9751914,41.4611372" id="Fill-26" fill="#060101"></path>
                                <path d="M34.457466,46.5290903 C32.9405216,46.8497923 31.4328673,46.715283 31.3359846,46.7066691 C31.0075123,46.6755265 30.7580062,46.3985566 30.7613241,46.0692407 C30.764642,45.7399248 31.0194568,45.4669305 31.3485926,45.4430766 C31.7606759,45.4125967 32.0460154,45.2760996 32.2245185,45.0243087 C32.6558457,44.4113968 32.4600895,43.2326182 32.3479444,42.8304155 C32.2543796,42.4938109 32.451463,42.1446168 32.7878981,42.0498639 C33.1236698,41.9570989 33.4747037,42.1512428 33.5695957,42.4865222 C33.6226821,42.6747027 34.030784,44.2185781 33.4634228,45.4086211 C34.3851358,45.3019413 35.3559537,45.0514756 35.9146883,44.5207271 C36.25975,44.1927364 36.4163549,43.7786067 36.3937932,43.2544842 C36.3785309,42.9039649 36.648608,42.6077794 36.999642,42.5938646 C37.3493488,42.577962 37.6459691,42.8489685 37.6612315,43.1988252 C37.7010463,44.0979835 37.4070802,44.8526934 36.7879599,45.4397636 C36.1781296,46.0188825 35.3161389,46.3475358 34.457466,46.5290903" id="Fill-28" fill="#060101"></path>
                                <path d="M104.604468,123.371477 C62.9979861,132.179518 22.1174614,105.735518 13.1246219,64.2715312 L13.108696,64.2748442 L12.4424614,61.1380605 L10.0774614,49.8525304 C10.0011497,49.4927346 9.9772608,49.1183614 10.0064583,48.7400125 C10.0482639,48.2105892 9.6985571,47.7301988 9.18096451,47.6056286 C7.68060957,47.2451701 6.55318673,46.097534 6.23732253,44.6099803 C6.046875,43.7114846 6.17162809,42.8050376 6.59963735,41.9893678 C6.75624228,41.6905319 6.76420525,41.3347117 6.62020833,41.028587 C6.476875,40.7237876 6.1981713,40.5024767 5.86770833,40.4315777 C4.34147377,40.1049122 3.14835648,38.9201701 2.8285108,37.4120756 C2.4356713,35.5634008 3.43170525,33.69286 5.1968287,32.9639918 C5.60625772,32.7950269 5.87036265,32.394812 5.86505401,31.9528528 C5.85974537,31.5108936 5.58635031,31.1173048 5.1736034,30.9576164 C3.92142747,30.4745756 3.01033179,29.4117532 2.73494599,28.1156931 C2.41908179,26.6281393 2.983125,25.1220326 4.20809414,24.1851057 C4.63013117,23.8617532 4.75422068,23.2806465 4.5013966,22.8135082 C4.32090278,22.4795541 4.19084105,22.1277095 4.11386574,21.7679137 C3.66395833,19.6469072 5.04287809,17.5517425 7.18756944,17.0978564 C7.3236034,17.0693643 7.47158179,17.0474982 7.63946759,17.030933 C7.96462191,16.9991279 8.25858796,16.8228743 8.43775463,16.5512052 C8.61824846,16.2788736 8.66536265,15.9402812 8.5664892,15.6288557 C8.52534722,15.4989846 8.49283179,15.3770648 8.46761574,15.2564703 C8.01704475,13.1354638 9.39596451,11.0402991 11.5413194,10.586413 C12.1836651,10.4505784 12.8286651,10.4717819 13.4590664,10.6500233 C13.794838,10.7447761 14.1558256,10.6725519 14.4285571,10.4545541 C14.7019522,10.2378814 14.8525849,9.90193947 14.8346682,9.55473317 C14.733804,7.6099803 16.0583102,5.90376612 17.9826929,5.49626254 C18.8042052,5.32199678 19.6469522,5.40946096 20.4193596,5.74871597 C20.943588,5.97930337 21.5567361,5.76196812 21.8175231,5.25374821 C22.3682948,4.18297457 23.3610108,3.42561426 24.5428472,3.17581125 C25.7233565,2.92534563 26.9390355,3.21556769 27.8766744,3.97094019 C28.3226003,4.32941082 28.9709182,4.27971526 29.3571219,3.8569717 C29.924483,3.23345809 30.6590664,2.81203976 31.4805787,2.6384366 C33.405625,2.23093302 35.3087731,3.25399893 36.0068596,5.07153116 C36.1316127,5.39753403 36.4069985,5.64269878 36.7440972,5.73082557 C37.0818596,5.81828976 37.4408565,5.73877686 37.7089429,5.51614076 C38.2132639,5.09737285 38.7945602,4.81642729 39.4369059,4.68059277 C41.5815972,4.22670666 43.6937731,5.5824015 44.1443441,7.70340795 C44.1695602,7.8233399 44.1894676,7.9479101 44.2047299,8.08506984 C44.2412269,8.40908489 44.4223843,8.69930695 44.6977701,8.87489792 C44.9724923,9.0504889 45.3115818,9.09223317 45.6221373,8.98952901 C45.7820602,8.93652042 45.9253935,8.89676397 46.0614275,8.86760924 C48.207446,8.41372314 50.3182948,9.76941798 50.7688657,11.8904244 C50.8451775,12.2502203 50.8690664,12.6245935 50.8398688,13.0029423 C50.7980633,13.5323657 51.1484336,14.0134187 51.6660262,14.1379889 C53.165054,14.4977847 54.293804,15.6454208 54.6090046,17.1336372 C54.8843904,18.4296973 54.4829244,19.7701522 53.5353318,20.7190061 C53.2227855,21.0317568 53.1332022,21.5028707 53.3077238,21.9090491 C53.4822454,22.3145648 53.8870293,22.5729817 54.3289738,22.5617174 C56.2387577,22.5126845 57.9096528,23.8193463 58.3024923,25.6680211 C58.622338,27.1754531 58.0131713,28.7418571 56.7517052,29.6589058 C56.4783102,29.857688 56.3137423,30.1724266 56.3064429,30.5096938 C56.2991435,30.8476236 56.4511034,31.1689882 56.7152083,31.3790347 C57.4378472,31.9515276 57.9202701,32.7294287 58.1120448,33.6279244 C58.4272454,35.1154782 57.8632022,36.6209223 56.6388966,37.5578492 C56.216196,37.8812016 56.0921065,38.4623084 56.344267,38.9301092 C56.5254244,39.2634008 56.6561497,39.6152453 56.7317978,39.973716 L59.259375,51.9543213 L59.8128009,54.0368965 C63.1817978,69.9063449 78.7971682,80.0429137 94.6899151,76.6781931 L104.604468,123.371477 Z M94.2433256,74.5730892 C87.1191281,76.0818463 79.8343441,74.7294645 73.7300694,70.7664094 C67.6244676,66.8033542 63.4306404,60.70339 61.9203318,53.5902991 L61.376196,51.5063986 L58.849946,39.5271186 C58.7895602,39.2448478 58.709267,38.9672153 58.6090664,38.6948836 C60.0211651,37.2497367 60.6515664,35.1704746 60.2288657,33.1793392 C60.0238194,32.215908 59.5851929,31.3187375 58.9614275,30.566678 C60.2640355,29.1334581 60.8280787,27.146961 60.4193133,25.2194359 C59.9488349,23.0050018 58.299838,21.2914989 56.2135417,20.6613592 C56.8246991,19.4467998 57.0164738,18.0513485 56.7264892,16.6850519 C56.3037886,14.6939165 54.8823997,13.0486622 53.003804,12.3005784 C52.9858873,12.011019 52.9460725,11.72411 52.8863503,11.4425018 C52.2227701,8.31897027 49.2432948,6.26422457 46.1065509,6.66974033 C45.1669213,3.723125 42.0998534,1.90758059 38.987662,2.56621239 C38.4448534,2.68084348 37.9186343,2.87034921 37.4275849,3.12479047 C36.0698997,1.05811784 33.5615664,-0.0113305874 31.0319985,0.524056232 C30.0764429,0.726151504 29.1985262,1.14425681 28.4493441,1.74921741 C27.1427546,0.993182307 25.599267,0.742716691 24.0936034,1.06143087 C22.5872762,1.38014506 21.2800231,2.23490867 20.3921528,3.45476898 C19.4611497,3.20562858 18.4890046,3.17978689 17.5341127,3.38188216 C15.0045448,3.91726898 13.1465201,5.9110548 12.7457176,8.35011282 C12.1929552,8.31698245 11.6348843,8.3574015 11.0920756,8.47203259 C7.98121142,9.1306644 5.91482253,12.032885 6.25391204,15.106721 C3.22201389,16.0078671 1.33346451,19.09363 1.99704475,22.2164989 C2.05676698,22.4981071 2.13706019,22.7764022 2.23792438,23.0487339 C0.825162037,24.4925555 0.194760802,26.5731429 0.618125,28.5642783 C0.907445988,29.9299122 1.65065586,31.1279065 2.70309414,31.9906214 C1.0514429,33.4112518 0.24121142,35.6455641 0.711689815,37.8606608 C1.12045525,39.7875233 2.44429784,41.3751307 4.21672068,42.1576701 C3.95195216,43.0979101 3.91545525,44.0944717 4.11983796,45.0585655 C4.54253858,47.0490383 5.96459105,48.6949552 7.84252315,49.443039 C7.8611034,49.7325985 7.90091821,50.0195075 7.95997685,50.3024409 L10.5187423,62.2737697 L10.9427701,64.3835118 C13.1657639,74.8493965 17.3748534,84.56786 23.453912,93.2705462 C29.3252701,101.675059 36.684375,108.780861 45.3261806,114.391159 C53.9673225,120.001456 63.4578472,123.833315 73.5336497,125.781381 C83.9657948,127.797695 94.5704707,127.694991 105.051057,125.475919 L107.159252,125.029984 L106.712662,122.92488 L96.797446,76.2322582 L96.3508565,74.127817 L94.2433256,74.5730892 Z" id="Fill-30" fill="#060101"></path>
                            </g>
                            <g id="Group-8" stroke-width="1" fill="none" transform="translate(37.160494, 0.815670)">
                                <mask id="mask-9" fill="white">
                                    <use xlink:href="#path-8"></use>
                                </mask>
                                <g id="Clip-7"></g>
                                <path d="M0.327808642,11.4538324 L0.420046296,11.494914 C1.17652778,10.9330229 2.05908951,10.5155802 3.04118827,10.3081841 C6.62717593,9.54883596 10.1448148,11.7877865 10.9975154,15.3227973 C11.8143827,13.341601 13.739429,7.73726719 12.1096759,2.14817335 C11.7533333,0.924337393 11.1561111,0.420093123 10.4155556,0.420093123 C6.95033951,0.419430516 0.327808642,11.4538324 0.327808642,11.4538324" id="Fill-6" fill="url(#linearGradient-10)" mask="url(#mask-9)"></path>
                                <polygon id="Clip-10" fill="url(#linearGradient-11)" mask="url(#mask-9)" points="-1.02795216 -0.524122493 13.6900882 -0.524122493 13.6900882 18.3701289 -1.02795216 18.3701289"></polygon>
                            </g>
                            <g id="Group-11" stroke-width="1" fill="none" transform="translate(35.833333, 0.153062)">
                                <mask id="mask-13" fill="white">
                                    <use xlink:href="#path-12"></use>
                                </mask>
                                <use id="Fill-9" fill="#4D4D4D" xlink:href="#path-12"></use>
                            </g>
                            <g id="Group-14" stroke-width="1" fill="none" transform="translate(1.327160, 3.466100)">
                                <path d="M29.9287963,0.255766476 C28.8458333,0.485691261 27.9201389,1.04625716 27.2293519,1.80428009 C26.0853395,0.883255731 24.5471605,0.463162607 22.9904012,0.793141117 C21.4349691,1.12245702 20.1993827,2.12962034 19.5285031,3.43429441 C18.5882099,3.02148997 17.514537,2.88433023 16.4315741,3.11359241 C13.9617284,3.63638968 12.3014506,5.86275072 12.4268673,8.28524355 C11.6584414,8.06790831 10.8263117,8.02682665 9.98953704,8.20374284 C7.25691358,8.78286175 5.50705247,11.4478689 6.08171296,14.155283 C6.11621914,14.3176218 6.15868827,14.4753223 6.20779321,14.6303725 C6.01800926,14.6489255 5.82756173,14.6747672 5.63645062,14.7151862 C2.90316358,15.2943052 1.15330247,17.9593123 1.72796296,20.667389 C1.82949074,21.1457915 2.00069444,21.5917264 2.22299383,22.002543 C0.729274691,23.1448782 -0.0637037037,25.0664398 0.34904321,27.0145057 C0.713348765,28.7299964 1.92438272,30.0485852 3.45592593,30.6402937 C1.2495216,31.5507163 -0.0670216049,33.9129119 0.442608025,36.3115509 C0.865972222,38.3033489 2.42936728,39.7590974 4.31393519,40.1626254 C3.79236111,41.1578617 3.60125,42.3286891 3.85208333,43.508793 C4.26549383,45.4575215 5.77115741,46.8920666 7.60064815,47.3307128 C7.56415123,47.7958632 7.59003086,48.2729405 7.69222222,48.7520057 L10.26625,60.7975466 L11.2788735,60.5828617 L11.8183642,63.1232987 L11.8356173,63.1206483 C20.9047685,104.484581 61.7288889,130.84178 103.277639,122.046329 L93.3624228,75.3530444 C77.4703395,78.717765 61.8549691,68.5805337 58.4859722,52.7117479 L58.4806636,52.7124105 L58.0486728,50.6815186 L59.0068827,50.4787607 L56.4633796,38.4259312 C56.3618519,37.946866 56.1919753,37.5015938 55.9690123,37.0907772 C57.4627315,35.9477794 58.257037,34.0268804 57.8422994,32.0781519 C57.5921296,30.898048 56.9411574,29.9047994 56.0605864,29.2070738 C57.6193364,28.0746777 58.4567747,26.1107092 58.0334105,24.1189112 C57.5237809,21.7202722 55.3618364,20.0948961 52.9749383,20.1565186 C54.1348765,18.9956304 54.704892,17.2993553 54.34125,15.5845272 C53.9265123,13.6357987 52.4208488,12.2012536 50.591358,11.7619448 C50.6278549,11.297457 50.6026389,10.8203797 50.5004475,10.3413145 C49.9251235,7.63323782 47.2435957,5.90714542 44.5103086,6.48560172 C44.3191975,6.52602077 44.1340586,6.57902937 43.9529012,6.63932665 C43.9349846,6.47765043 43.9097685,6.31597421 43.8759259,6.15363539 C43.3006019,3.44555874 40.6184105,1.71946633 37.8844599,2.29792264 C37.0483488,2.47550143 36.3044753,2.84987464 35.6906636,3.36008238 C34.9461265,1.42129298 33.064213,0.144448424 30.9891975,0.144448424 C30.6401543,0.144448424 30.2851389,0.180229226 29.9287963,0.255766476" id="Fill-12" fill="#FFFFFF"></path>
                                <path d="M29.9287963,0.255766476 C28.8458333,0.485691261 27.9201389,1.04625716 27.2293519,1.80428009 C26.0853395,0.883255731 24.5471605,0.463162607 22.9904012,0.793141117 C21.4349691,1.12245702 20.1993827,2.12962034 19.5285031,3.43429441 C18.5882099,3.02148997 17.514537,2.88433023 16.4315741,3.11359241 C13.9617284,3.63638968 12.3014506,5.86275072 12.4268673,8.28524355 C11.6584414,8.06790831 10.8263117,8.02682665 9.98953704,8.20374284 C7.25691358,8.78286175 5.50705247,11.4478689 6.08171296,14.155283 C6.11621914,14.3176218 6.15868827,14.4753223 6.20779321,14.6303725 C6.01800926,14.6489255 5.82756173,14.6747672 5.63645062,14.7151862 C2.90316358,15.2943052 1.15330247,17.9593123 1.72796296,20.667389 C1.82949074,21.1457915 2.00069444,21.5917264 2.22299383,22.002543 C0.729274691,23.1448782 -0.0637037037,25.0664398 0.34904321,27.0145057 C0.713348765,28.7299964 1.92438272,30.0485852 3.45592593,30.6402937 C1.2495216,31.5507163 -0.0670216049,33.9129119 0.442608025,36.3115509 C0.865972222,38.3033489 2.42936728,39.7590974 4.31393519,40.1626254 C3.79236111,41.1578617 3.60125,42.3286891 3.85208333,43.508793 C4.26549383,45.4575215 5.77115741,46.8920666 7.60064815,47.3307128 C7.56415123,47.7958632 7.59003086,48.2729405 7.69222222,48.7520057 L10.26625,60.7975466 L11.2788735,60.5828617 L11.8183642,63.1232987 L11.8356173,63.1206483 C20.9047685,104.484581 61.7288889,130.84178 103.277639,122.046329 L93.3624228,75.3530444 C77.4703395,78.717765 61.8549691,68.5805337 58.4859722,52.7117479 L58.4806636,52.7124105 L58.0486728,50.6815186 L59.0068827,50.4787607 L56.4633796,38.4259312 C56.3618519,37.946866 56.1919753,37.5015938 55.9690123,37.0907772 C57.4627315,35.9477794 58.257037,34.0268804 57.8422994,32.0781519 C57.5921296,30.898048 56.9411574,29.9047994 56.0605864,29.2070738 C57.6193364,28.0746777 58.4567747,26.1107092 58.0334105,24.1189112 C57.5237809,21.7202722 55.3618364,20.0948961 52.9749383,20.1565186 C54.1348765,18.9956304 54.704892,17.2993553 54.34125,15.5845272 C53.9265123,13.6357987 52.4208488,12.2012536 50.591358,11.7619448 C50.6278549,11.297457 50.6026389,10.8203797 50.5004475,10.3413145 C49.9251235,7.63323782 47.2435957,5.90714542 44.5103086,6.48560172 C44.3191975,6.52602077 44.1340586,6.57902937 43.9529012,6.63932665 C43.9349846,6.47765043 43.9097685,6.31597421 43.8759259,6.15363539 C43.3006019,3.44555874 40.6184105,1.71946633 37.8844599,2.29792264 C37.0483488,2.47550143 36.3044753,2.84987464 35.6906636,3.36008238 C34.9461265,1.42129298 33.064213,0.144448424 30.9891975,0.144448424 C30.6401543,0.144448424 30.2851389,0.180229226 29.9287963,0.255766476" id="Fill-12-Copy" fill-opacity="0.200000018" fill="url(#linearGradient-14)" style="mix-blend-mode: multiply;"></path>
                            </g>
                            <g id="Group-17" stroke-width="1" fill="none" transform="translate(11.280864, 27.028420)">
                                <mask id="mask-16" fill="white">
                                    <use xlink:href="#path-15"></use>
                                </mask>
                                <g id="Clip-16"></g>
                                <path d="M29.6135957,0.232575215 C25.2797531,1.14962393 22.380571,5.09876433 22.6446759,9.38583453 C21.7488426,9.29240688 20.8231481,9.3301755 19.8947994,9.52696991 C18.965787,9.72310172 18.1044599,10.0630193 17.3234259,10.5122672 C15.8237346,6.48758954 11.5681944,4.05250716 7.23435185,4.97021848 C2.4658642,5.97936963 -0.579305556,10.6580408 0.43132716,15.4182128 C1.44262346,20.1797099 6.1275,23.2210781 10.8959877,22.2112643 C11.8243364,22.0144699 12.6856636,21.6752149 13.466034,21.2266297 C14.9663889,25.2519699 19.221929,27.6857271 23.5557716,26.7680158 C27.8896142,25.850967 30.7887963,21.901164 30.5246914,17.6154191 C31.4205247,17.7088467 32.3455556,17.6704155 33.2752315,17.4736211 C38.0430556,16.4644699 41.0888889,11.7871239 40.0775926,7.02562679 C39.1976852,2.88101719 35.5327315,0.0390938395 31.4530401,0.0390938395 C30.8458642,0.0390938395 30.2307253,0.102041547 29.6135957,0.232575215" id="Fill-15" fill="url(#linearGradient-17)" mask="url(#mask-16)"></path>
                            </g>
                            <g id="Group-32" stroke-width="1" fill="none" transform="translate(0.371972, 2.511945)">
                                <path d="M25.0292823,38.134914 C25.5110416,40.4030193 24.0597916,42.6320308 21.7876928,43.1130838 C19.515594,43.5941368 17.2833101,42.1450143 16.8022144,39.8762464 C16.3204552,37.6074785 17.7710416,35.3791297 20.0431403,34.8980766 C22.3152391,34.4170236 24.5468595,35.8661461 25.0292823,38.134914" id="Fill-18" fill="#4D4D4D"></path>
                                <path d="M24.0520277,37.6017138 C23.785932,37.6580355 23.5039104,37.5361157 23.36854,37.2849875 C23.3539413,37.2591458 22.475361,35.6847905 20.8542345,35.3104173 C19.754682,35.0566386 18.53104,35.4011945 17.2151604,36.3341458 C16.9324752,36.5355784 16.5402993,36.4693177 16.3385709,36.1857217 C16.1375061,35.9034509 16.2038641,35.5118499 16.4872129,35.3104173 C18.1136481,34.1568177 19.6830153,33.7466637 21.152182,34.0905569 C23.3340339,34.6027525 24.4302684,36.6058148 24.476719,36.6906286 C24.6406234,36.9960906 24.5251604,37.3764273 24.2185863,37.5407539 C24.1654999,37.5692461 24.1090956,37.5891243 24.0520277,37.6017138" id="Fill-20" fill="#4D4D4D"></path>
                                <path d="M37.7436126,35.4430713 C38.2260354,37.7111766 40.4576558,39.1602991 42.7297545,38.6792461 C45.0018533,38.1981931 46.4524397,35.9691816 45.9706805,33.7010763 C45.4895848,31.4323084 43.2573008,29.9831859 40.9852021,30.4642389 C38.7131033,30.9452919 37.2618533,33.1743034 37.7436126,35.4430713" id="Fill-22" fill="#4D4D4D"></path>
                                <path d="M38.4201326,34.5584903 C38.3624011,34.5710799 38.3020153,34.5743929 38.240966,34.5704173 C37.8959042,34.543913 37.6371079,34.2437518 37.662324,33.8991959 C37.6696234,33.8024552 37.8574166,31.5277239 39.6437746,30.1760047 C40.8455184,29.2662446 42.4467376,29.0045147 44.4029721,29.4007539 C44.7433888,29.4690025 44.9630339,29.8003062 44.8946851,30.1402239 C44.8256727,30.4801415 44.4925555,30.7001271 44.153466,30.631216 C42.5714906,30.3118392 41.3126789,30.492731 40.4115369,31.1699158 C39.0784042,32.1717783 38.9178178,33.9753958 38.9164906,33.9932862 C38.8939289,34.2768822 38.6849011,34.5021687 38.4201326,34.5584903" id="Fill-24" fill="#4D4D4D"></path>
                                <path d="M34.603219,41.090077 C34.7200092,41.6400412 33.8182036,42.2960226 32.5905802,42.5564273 C31.3622931,42.8161694 30.2720308,42.5816064 30.1552406,42.0316422 C30.0384505,41.481678 30.9395925,40.825034 32.167216,40.5646293 C33.3961666,40.3048872 34.4857653,40.5401128 34.603219,41.090077" id="Fill-26" fill="#4D4D4D"></path>
                                <path d="M34.0854937,46.1580301 C32.5685493,46.4787321 31.060895,46.3442228 30.9640122,46.3356089 C30.63554,46.3044663 30.3860339,46.0274964 30.3893518,45.6981805 C30.3926697,45.3688646 30.6474845,45.0958703 30.9766203,45.0720165 C31.3887036,45.0415365 31.6740431,44.9050394 31.8525462,44.6532486 C32.2838734,44.0403367 32.0881172,42.861558 31.9759721,42.4593553 C31.8824073,42.1227507 32.0794906,41.7735566 32.4159258,41.6788037 C32.7516974,41.5860387 33.1027314,41.7801827 33.1976234,42.115462 C33.2507098,42.3036426 33.6588116,43.8475179 33.0914505,45.0375609 C34.0131635,44.9308811 34.9839814,44.6804155 35.542716,44.1496669 C35.8877777,43.8216762 36.0443826,43.4075466 36.0218209,42.8834241 C36.0065585,42.5329047 36.2766357,42.2367192 36.6276697,42.2228044 C36.9773764,42.2069019 37.2739968,42.4779083 37.2892592,42.827765 C37.329074,43.7269234 37.0351079,44.4816332 36.4159876,45.0687034 C35.8061573,45.6478223 34.9441666,45.9764756 34.0854937,46.1580301" id="Fill-28" fill="#4D4D4D"></path>
                                <path d="M104.232495,123.000417 C62.6260138,131.808458 21.7454891,105.364457 12.7526496,63.900471 L12.7367237,63.903784 L12.0704891,60.7670004 L9.7054891,49.4814703 C9.62917737,49.1216744 9.60528848,48.7473012 9.63448601,48.3689524 C9.67629157,47.839529 9.32658478,47.3591386 8.80899219,47.2345684 C7.30863725,46.87411 6.18121441,45.7264739 5.86535021,44.2389201 C5.67490268,43.3404244 5.79965577,42.4339774 6.22766503,41.6183077 C6.38426997,41.3194717 6.39223293,40.9636515 6.24823601,40.6575269 C6.10490268,40.3527274 5.82619898,40.1314165 5.49573601,40.0605176 C3.96950145,39.7338521 2.77638416,38.54911 2.45653848,37.0410154 C2.06369898,35.1923406 3.05973293,33.3217998 4.82485639,32.5929316 C5.2342854,32.4239667 5.49839034,32.0237518 5.49308169,31.5817926 C5.48777305,31.1398335 5.21437799,30.7462446 4.80163108,30.5865562 C3.54945515,30.1035154 2.63835947,29.0406931 2.36297367,27.7446329 C2.04710947,26.2570792 2.61115268,24.7509724 3.83612182,23.8140455 C4.25815885,23.4906931 4.38224836,22.9095863 4.12942429,22.4424481 C3.94893046,22.1084939 3.81886873,21.7566494 3.74189342,21.3968535 C3.29198601,19.2758471 4.67090577,17.1806823 6.81559713,16.7267962 C6.95163108,16.6983041 7.09960947,16.676438 7.26749527,16.6598729 C7.5926496,16.6280677 7.88661564,16.4518141 8.06578231,16.1801451 C8.24627614,15.9078134 8.29339034,15.569221 8.19451688,15.2577955 C8.1533749,15.1279244 8.12085947,15.0060047 8.09564342,14.8854101 C7.64507243,12.7644037 9.02399219,10.6692389 11.1693471,10.2153528 C11.8116928,10.0795183 12.4566928,10.1007217 13.087094,10.2789631 C13.4228656,10.373716 13.7838533,10.3014918 14.0565848,10.0834939 C14.3299798,9.86682128 14.4806126,9.5308793 14.4626959,9.18367299 C14.3618317,7.23892013 15.6863379,5.53270595 17.6107206,5.12520236 C18.4322329,4.9509366 19.2749798,5.03840079 20.0473872,5.3776558 C20.5716156,5.60824319 21.1847638,5.39090795 21.4455508,4.88268804 C21.9963224,3.8119144 22.9890385,3.05455408 24.1708749,2.80475107 C25.3513842,2.55428546 26.5670632,2.84450752 27.5047021,3.59988001 C27.950628,3.95835064 28.5989459,3.90865509 28.9851496,3.48591153 C29.5525107,2.86239792 30.287094,2.44097958 31.1086064,2.26737643 C33.0336527,1.85987285 34.9368008,2.88293875 35.6348872,4.70047099 C35.7596403,5.02647385 36.0350261,5.27163861 36.3721249,5.3597654 C36.7098872,5.44722958 37.0688842,5.36771669 37.3369706,5.14508059 C37.8412916,4.72631268 38.4225879,4.44536712 39.0649335,4.30953259 C41.2096249,3.85564649 43.3218008,5.21134133 43.7723718,7.33234778 C43.7975879,7.45227973 43.8174953,7.57684993 43.8327576,7.71400967 C43.8692545,8.03802471 44.0504119,8.32824678 44.3257977,8.50383775 C44.60052,8.67942872 44.9396095,8.72117299 45.250165,8.61846884 C45.4100879,8.56546024 45.5534212,8.5257038 45.6894552,8.49654907 C47.8354737,8.04266297 49.9463224,9.39835781 50.3968934,11.5193643 C50.4732052,11.8791601 50.497094,12.2535333 50.4678965,12.6318822 C50.426091,13.1613055 50.7764613,13.6423585 51.2940539,13.7669287 C52.7930817,14.1267246 53.9218317,15.2743607 54.2370323,16.762577 C54.5124181,18.0586372 54.1109521,19.399092 53.1633595,20.3479459 C52.8508132,20.6606966 52.7612298,21.1318105 52.9357514,21.5379889 C53.1102731,21.9435047 53.515057,22.2019216 53.9570014,22.1906572 C55.8667854,22.1416243 57.5376805,23.4482862 57.93052,25.296961 C58.2503656,26.8043929 57.641199,28.3707969 56.3797329,29.2878456 C56.1063379,29.4866279 55.94177,29.8013664 55.9344706,30.1386336 C55.9271712,30.4765634 56.0791311,30.797928 56.343236,31.0079746 C57.0658749,31.5804674 57.5482977,32.3583686 57.7400724,33.2568643 C58.0552731,34.744418 57.4912298,36.2498621 56.2669243,37.186789 C55.8442237,37.5101415 55.7201342,38.0912482 55.9722947,38.5590491 C56.1534521,38.8923406 56.2841774,39.2441852 56.3598255,39.6026558 L58.8874027,51.5832611 L59.4408286,53.6658363 C62.8098255,69.5352847 78.4251959,79.6718535 94.3179428,76.3071329 L104.232495,123.000417 Z M93.8713533,74.202029 C86.7471558,75.7107862 79.4623718,74.3584044 73.3580971,70.3953492 C67.2524953,66.4322941 63.0586681,60.3323299 61.5483595,53.2192389 L61.0042237,51.1353385 L58.4779737,39.1560584 C58.4175879,38.8737876 58.3372947,38.5961551 58.237094,38.3238234 C59.6491928,36.8786766 60.279594,34.7994144 59.8568934,32.808279 C59.6518471,31.8448478 59.2132206,30.9476773 58.5894552,30.1956178 C59.8920632,28.7623979 60.4561064,26.7759008 60.047341,24.8483757 C59.5768626,22.6339416 57.9278656,20.9204388 55.8415693,20.2902991 C56.4527268,19.0757396 56.6445014,17.6802883 56.3545169,16.3139918 C55.9318163,14.3228564 54.5104274,12.6776021 52.6318317,11.9295183 C52.613915,11.6399588 52.5741002,11.3530498 52.514378,11.0714416 C51.8507977,7.9479101 48.8713224,5.8931644 45.7345786,6.29868016 C44.794949,3.35206483 41.7278811,1.53652042 38.6156897,2.19515222 C38.0728811,2.30978331 37.5466619,2.49928904 37.0556126,2.7537303 C35.6979274,0.687057665 33.189594,-0.382390759 30.6600261,0.15299606 C29.7044706,0.355091332 28.8265539,0.773196633 28.0773718,1.37815723 C26.7707823,0.622122135 25.2272947,0.371656519 23.7216311,0.690370702 C22.2153039,1.00908489 20.9080508,1.8638485 20.0201805,3.08370881 C19.0891774,2.83456841 18.1170323,2.80872672 17.1621403,3.01082199 C14.6325724,3.54620881 12.7745477,5.53999463 12.3737453,7.97905265 C11.8209829,7.94592228 11.2629119,7.98634133 10.7201033,8.10097242 C7.6092391,8.75960423 5.54285021,11.6618249 5.88193972,14.7356608 C2.85004157,15.6368069 0.961492188,18.7225698 1.62507243,21.8454388 C1.68479466,22.1270469 1.76508787,22.405342 1.86595206,22.6776737 C0.453189719,24.1214953 -0.177211516,26.2020827 0.246152682,28.1932181 C0.535473669,29.5588521 1.27868355,30.7568463 2.33112182,31.6195612 C0.679470583,33.0401916 -0.130760899,35.2745039 0.339717496,37.4896006 C0.748482929,39.4164631 2.07232552,41.0040706 3.84474836,41.78661 C3.57997984,42.7268499 3.54348293,43.7234115 3.74786564,44.6875054 C4.17056626,46.6779782 5.59261873,48.3238951 7.47055083,49.0719789 C7.48913108,49.3615383 7.52894589,49.6484473 7.58800453,49.9313807 L10.14677,61.9027095 L10.5707977,64.0124516 C12.7937916,74.4783363 17.0028811,84.1967998 23.0819397,92.899486 C28.9532977,101.303999 36.3124027,108.409801 44.9542082,114.020098 C53.5953502,119.630396 63.0858749,123.462255 73.1616774,125.410321 C83.5938224,127.426635 94.1984984,127.323931 104.679085,125.104859 L106.787279,124.658924 L106.34069,122.55382 L96.4254737,75.8611981 L95.9788842,73.7567568 L93.8713533,74.202029 Z" id="Fill-30" fill="#4D4D4D"></path>
                            </g>
                        </g>
                    </g>
                </g>
            </g>
        </g>
    </g>
</svg>