<?xml version="1.0" encoding="UTF-8"?>
<svg width="87px" height="24px" viewBox="0 0 87 24" version="1.1" xmlns="http://www.w3.org/2000/svg" xmlns:xlink="http://www.w3.org/1999/xlink">
    <!-- Generator: Sketch 52.5 (67469) - http://www.bohemiancoding.com/sketch -->
    <title>codemate/whole/icon/ask-text</title>
    <desc>Created with Sketch.</desc>
    <g id="Page-1" stroke="none" stroke-width="1" fill="none" fill-rule="evenodd">
        <g id="codemate/whole/icon/ask-text">
            <path d="M5,15 L1.8369702e-16,12 L5,9 L5,3 C5,1.34314575 6.34314575,3.04359188e-16 8,0 L84,0 C85.6568542,-3.04359188e-16 87,1.34314575 87,3 L87,21 C87,22.6568542 85.6568542,24 84,24 L8,24 C6.34314575,24 5,22.6568542 5,21 L5,15 Z" id="Combined-Shape" fill="#4BA69A" fill-rule="nonzero"></path>
            <path d="M21.095,7.74 L21.095,12.4 L20.055,12.4 L20.055,7.74 L21.095,7.74 Z M19.215,11.47 L18.755,12.26 C17.685,11.96 16.915,11.29 16.505,10.46 C16.105,11.38 15.315,12.11 14.215,12.46 L13.725,11.65 C15.125,11.23 15.945,10.16 15.965,9.04 L14.005,9.04 L14.005,8.21 L18.945,8.21 L18.945,9.04 L17.015,9.04 C17.045,10.09 17.845,11.08 19.215,11.47 Z M16.205,15.89 L21.365,15.89 L21.365,16.69 L15.195,16.69 L15.195,14.35 L20.075,14.35 L20.075,13.59 L15.175,13.59 L15.175,12.81 L21.095,12.81 L21.095,15.09 L16.205,15.09 L16.205,15.89 Z M28.965,10.58 L28.965,8.96 L24.895,8.96 L24.895,10.58 L28.965,10.58 Z M29.975,8.14 L29.975,11.4 L23.885,11.4 L23.885,8.14 L29.975,8.14 Z M24.875,13.99 L24.875,15.76 L30.125,15.76 L30.125,16.6 L23.845,16.6 L23.845,13.99 L24.875,13.99 Z M22.845,12.29 L31.035,12.29 L31.035,13.12 L27.535,13.12 L27.535,14.81 L26.505,14.81 L26.505,13.12 L22.845,13.12 L22.845,12.29 Z M34.685,13.98 C35.415,13.98 35.945,13.48 35.945,12.72 C35.945,11.96 35.415,11.46 34.685,11.46 C33.955,11.46 33.425,11.96 33.425,12.72 C33.425,13.48 33.955,13.98 34.685,13.98 Z M34.685,10.61 C35.975,10.61 36.925,11.49 36.925,12.72 C36.925,13.96 35.975,14.83 34.685,14.83 C33.385,14.83 32.445,13.96 32.445,12.72 C32.445,11.49 33.385,10.61 34.685,10.61 Z M35.185,7.87 L35.185,9.13 L37.295,9.13 L37.295,9.97 L32.005,9.97 L32.005,9.13 L34.155,9.13 L34.155,7.87 L35.185,7.87 Z M40.455,11.37 L40.455,12.23 L39.065,12.23 L39.065,16.78 L38.025,16.78 L38.025,7.74 L39.065,7.74 L39.065,11.37 L40.455,11.37 Z M41.765,8.69 L46.045,8.69 C46.045,11.38 44.965,13.66 41.865,15.16 L41.315,14.34 C43.685,13.2 44.805,11.61 44.985,9.53 L41.765,9.53 L41.765,8.69 Z M47.675,7.74 L48.705,7.74 L48.705,16.77 L47.675,16.77 L47.675,7.74 Z M56.035,16.13 C54.185,16.13 52.765,14.75 52.765,12.34 C52.765,9.94 54.225,8.5 56.085,8.5 C57.005,8.5 57.725,8.94 58.175,9.43 L57.545,10.17 C57.165,9.78 56.705,9.51 56.105,9.51 C54.835,9.51 53.955,10.57 53.955,12.3 C53.955,14.05 54.775,15.12 56.075,15.12 C56.745,15.12 57.265,14.82 57.705,14.34 L58.325,15.07 C57.735,15.75 56.985,16.13 56.035,16.13 Z M60.665,16.13 C59.835,16.13 59.525,15.6 59.525,14.71 L59.525,8.03 L60.665,8.03 L60.665,14.77 C60.665,15.08 60.805,15.19 60.945,15.19 C60.995,15.19 61.035,15.19 61.135,15.17 L61.285,16.04 C61.145,16.09 60.945,16.13 60.665,16.13 Z M62.505,16 L62.505,10.5 L63.645,10.5 L63.645,16 L62.505,16 Z M63.075,9.47 C62.655,9.47 62.345,9.19 62.345,8.79 C62.345,8.38 62.655,8.11 63.075,8.11 C63.495,8.11 63.815,8.38 63.815,8.79 C63.815,9.19 63.495,9.47 63.075,9.47 Z M67.615,16.13 C66.125,16.13 64.985,15.08 64.985,13.26 C64.985,11.42 66.255,10.36 67.705,10.36 C68.405,10.36 68.915,10.64 69.315,10.99 L68.745,11.74 C68.445,11.47 68.135,11.31 67.755,11.31 C66.835,11.31 66.175,12.09 66.175,13.26 C66.175,14.42 66.805,15.19 67.725,15.19 C68.185,15.19 68.595,14.97 68.925,14.69 L69.395,15.45 C68.895,15.9 68.245,16.13 67.615,16.13 Z M70.545,16 L70.545,8.03 L71.665,8.03 L71.665,13.17 L71.695,13.17 L73.855,10.5 L75.125,10.5 L73.255,12.73 L75.335,16 L74.085,16 L72.595,13.51 L71.665,14.58 L71.665,16 L70.545,16 Z M76.755,13.65 L76.595,9.65 L76.565,8.47 L77.725,8.47 L77.685,9.65 L77.525,13.65 L76.755,13.65 Z M77.135,16.13 C76.705,16.13 76.375,15.8 76.375,15.33 C76.375,14.86 76.705,14.51 77.135,14.51 C77.575,14.51 77.915,14.86 77.915,15.33 C77.915,15.8 77.575,16.13 77.135,16.13 Z" id="질문하기-Click!" fill="#FFFFFF"></path>
        </g>
    </g>
</svg>